<svg width="131" height="131" viewBox="0 0 131 131" fill="none" xmlns="http://www.w3.org/2000/svg">
<path d="M114.444 78.9417L111.007 79.015L109.262 79.0439C108.678 79.057 108.091 79.0439 107.506 79.0596H107.391V78.9417L107.378 76.0099V75.8789H107.509L110.978 75.8946C112.133 75.8946 113.291 75.9261 114.447 75.9392H114.52V76.0099C114.52 76.5077 114.499 77.0029 114.486 77.4902L114.444 78.9417ZM114.444 78.9417L114.408 77.4614C114.394 76.9714 114.379 76.4894 114.373 76.0099L114.444 76.0807C113.289 76.0938 112.131 76.1226 110.975 76.1252L107.506 76.1409L107.637 76.0099L107.624 78.9417L107.506 78.8238C108.078 78.8238 108.649 78.8238 109.223 78.8395L110.946 78.8683L114.444 78.9417Z" fill="#EBEBEB"/>
<path d="M110.564 82.6357L107.124 82.7091L105.379 82.7379C104.797 82.751 104.211 82.7379 103.626 82.751H103.511V82.6331L103.498 79.7013V79.5703H103.629L107.098 79.586C108.253 79.586 109.411 79.6175 110.567 79.6306H110.637V79.7013C110.637 80.1991 110.616 80.6943 110.603 81.1816L110.564 82.6357ZM110.564 82.6357L110.527 81.1554C110.527 80.6655 110.499 80.1834 110.493 79.7039L110.564 79.7747C109.409 79.7878 108.251 79.8166 107.095 79.8192L103.626 79.8349L103.757 79.7039L103.752 82.6357L103.637 82.5178C104.208 82.5178 104.779 82.5178 105.35 82.5335L107.074 82.5624L110.564 82.6357Z" fill="#EBEBEB"/>
<path d="M118.314 82.6357L114.876 82.7091L113.132 82.7379C112.547 82.751 111.96 82.7379 111.376 82.751H111.261V82.6331L111.245 79.7013V79.5703H111.376L114.845 79.586C116.003 79.586 117.159 79.6175 118.314 79.6306H118.387V79.7013C118.387 80.1991 118.364 80.6943 118.351 81.1816L118.314 82.6357ZM118.314 82.6357L118.277 81.1554C118.277 80.6655 118.248 80.1834 118.243 79.7039L118.314 79.7747C117.159 79.7878 116.003 79.8166 114.845 79.8192L111.376 79.8349L111.507 79.7039L111.494 82.6357L111.376 82.5178C111.947 82.5178 112.518 82.5178 113.092 82.5335L114.816 82.5624L118.314 82.6357Z" fill="#EBEBEB"/>
<path d="M19.65 78.9417L16.2099 79.015L14.465 79.0439C13.8833 79.057 13.2965 79.0439 12.7122 79.0596H12.5943V78.9417V76.0099V75.8789H12.7279L16.1968 75.8946C17.3522 75.8946 18.5076 75.9261 19.6657 75.9392H19.7364V76.0099C19.7364 76.5077 19.7128 77.0029 19.7024 77.4902L19.65 78.9417ZM19.65 78.9417L19.6133 77.4614C19.6133 76.9714 19.5818 76.4894 19.5766 76.0099L19.65 76.0807C18.4919 76.0938 17.3365 76.1226 16.1811 76.1252L12.7122 76.1409L12.8432 76.0099L12.8275 78.9417L12.7122 78.8238C13.2834 78.8238 13.8519 78.8238 14.4257 78.8395L16.1496 78.8683L19.65 78.9417Z" fill="#EBEBEB"/>
<path d="M23.5145 82.6357L20.0744 82.7091L18.34 82.7379C17.7583 82.751 17.1715 82.7379 16.5872 82.751H16.4693V82.6331V79.7013V79.5703H16.6003L20.0692 79.586C21.2246 79.586 22.3826 79.6175 23.5381 79.6306H23.58V79.7013C23.58 80.1991 23.559 80.6943 23.5459 81.1816L23.5145 82.6357ZM23.5145 82.6357L23.4778 81.1554C23.4778 80.6655 23.4464 80.1834 23.4437 79.7039L23.5145 79.7747C22.3591 79.7878 21.201 79.8166 20.0456 79.8192L16.5767 79.8349L16.7077 79.7039L16.692 82.6357L16.5767 82.5178C17.1479 82.5178 17.719 82.5178 18.2902 82.5335L20.0142 82.5624L23.5145 82.6357Z" fill="#EBEBEB"/>
<path d="M42.106 53.6344L38.6686 53.7078L36.9236 53.7366C36.3394 53.7497 35.7525 53.7366 35.1682 53.7497H35.053V53.6318L35.0399 50.7V50.5664H35.1709L38.6397 50.5821C39.7952 50.5821 40.9532 50.6109 42.1086 50.6267H42.182V50.6974C42.182 51.1952 42.161 51.6904 42.1479 52.1777L42.106 53.6344ZM42.106 53.6344L42.0693 52.1515C42.0693 51.6642 42.0405 51.1821 42.0353 50.7026L42.106 50.7734C40.9506 50.7865 39.7925 50.8153 38.6371 50.8179L35.1682 50.8336L35.2992 50.7026V53.6344L35.1813 53.5165C35.7525 53.5165 36.3237 53.5165 36.8974 53.5322L38.6214 53.5611L42.106 53.6344Z" fill="#EBEBEB"/>
<path d="M38.2363 57.3323L34.7962 57.4057L33.0513 57.4345C32.4696 57.4345 31.8828 57.4345 31.2985 57.4345H31.178V57.3166V54.4005V54.2695H31.309L34.7779 54.2853C35.9333 54.2853 37.0913 54.3141 38.2467 54.3298H38.3201V54.4005C38.3201 54.8983 38.2991 55.3935 38.286 55.8808L38.2363 57.3323ZM38.2363 57.3323L38.1996 55.8494C38.1865 55.3621 38.1708 54.88 38.1655 54.4005L38.2363 54.4713C37.0808 54.4713 35.9228 54.5132 34.7674 54.5158L31.2985 54.5315L31.4295 54.4005L31.4138 57.3323L31.2985 57.2144C31.8697 57.2144 32.4408 57.2144 33.012 57.2301L34.7359 57.2589L38.2363 57.3323Z" fill="#EBEBEB"/>
<path d="M45.9757 57.3324L42.5383 57.4058L40.7934 57.4346C40.2091 57.4346 39.6222 57.4346 39.038 57.4346H38.9227V57.3167L38.907 54.3849V54.2539H39.038L42.5069 54.2696C43.6649 54.2696 44.8203 54.2984 45.9757 54.3142H46.0491V54.3849C46.0491 54.8827 46.0255 55.3779 46.0124 55.8652L45.9757 57.3324ZM45.9757 57.3324L45.9391 55.8495C45.9391 55.3622 45.9102 54.8801 45.905 54.4006L45.9757 54.4714C44.8203 54.4714 43.6649 54.5133 42.5069 54.5159L39.038 54.5316L39.169 54.4006L39.1559 57.3324L39.038 57.2145C39.6091 57.2145 40.1803 57.2145 40.7541 57.2302L42.478 57.259L45.9757 57.3324Z" fill="#EBEBEB"/>
<path d="M114.043 15.5759L110.603 15.6492L108.858 15.6807C108.277 15.6807 107.69 15.6807 107.106 15.6807H106.99V15.5628L106.977 12.631V12.5H107.108L110.577 12.5157C111.733 12.5157 112.891 12.5445 114.046 12.5576H114.119V12.6284C114.119 13.1236 114.098 13.6187 114.085 14.1087L114.043 15.5759ZM114.043 15.5759L114.007 14.0956C113.994 13.6083 113.978 13.1262 113.973 12.6441L114.043 12.7175C112.888 12.7306 111.73 12.7594 110.574 12.7594L107.106 12.7751L107.237 12.6441L107.221 15.5759L107.106 15.458C107.677 15.458 108.248 15.458 108.819 15.4711L110.543 15.5025L114.043 15.5759Z" fill="#EBEBEB"/>
<path d="M117.913 19.2737L114.476 19.3471L112.731 19.3785C112.146 19.3785 111.56 19.3785 110.975 19.3916H110.86V19.2737L110.847 16.3419V16.2109H110.978L114.447 16.2267C115.602 16.2267 116.76 16.2555 117.916 16.2686H117.989V16.3393C117.989 16.8371 117.968 17.3323 117.955 17.8222L117.913 19.2737ZM117.913 19.2737L117.876 17.7934C117.863 17.3061 117.848 16.824 117.842 16.3419L117.913 16.4153C116.758 16.4284 115.6 16.4572 114.444 16.4572L110.975 16.4729L111.106 16.3419L111.088 19.2737L110.97 19.1584C111.541 19.1584 112.112 19.1584 112.686 19.1584L114.41 19.1899L117.913 19.2737Z" fill="#EBEBEB"/>
<path d="M19.6238 15.5824L16.1837 15.6558L14.4388 15.6846C13.8572 15.6846 13.2703 15.6846 12.686 15.6846H12.576V15.5667V12.6349V12.5039H12.707L16.1759 12.5196C17.3313 12.5196 18.4867 12.5484 19.6447 12.5615H19.7155V12.6323C19.7155 13.1301 19.6919 13.6226 19.6814 14.1126L19.6238 15.5824ZM19.6238 15.5824L19.5871 14.0995C19.574 13.6122 19.5557 13.1301 19.5504 12.6506L19.6238 12.7214C18.4657 12.7345 17.3103 12.7633 16.1549 12.7633L12.686 12.7816L12.817 12.6506L12.8013 15.5824L12.686 15.4593C13.2572 15.4593 13.8283 15.4593 14.3995 15.475L16.1235 15.5038L19.6238 15.5824Z" fill="#EBEBEB"/>
<path d="M45.2998 19.7109H30.9448V37.1235H45.2998V19.7109Z" fill="#EBEBEB"/>
<path d="M43.6597 21.2969H32.585V35.5313H43.6597V21.2969Z" fill="white"/>
<path d="M33.0173 21.2969H32.585V35.5313H33.0173V21.2969Z" fill="#DBDBDB"/>
<path d="M45.7295 19.7109H45.2972V37.1235H45.7295V19.7109Z" fill="#DBDBDB"/>
<path d="M38.907 23.2617H36.2949V31.0405H38.907V23.2617Z" fill="#DBDBDB"/>
<path d="M42.2501 32.4999H35.0242V28.4258H42.2501V32.4999ZM35.2862 32.2379H41.9881V28.6878H35.2862V32.2379Z" fill="#EBEBEB"/>
<path d="M28.2305 38.1055H13.8755V55.518H28.2305V38.1055Z" fill="#EBEBEB"/>
<path d="M26.5904 39.6953H15.5156V53.9298H26.5904V39.6953Z" fill="white"/>
<path d="M15.9479 39.6953H15.5156V53.9298H15.9479V39.6953Z" fill="#DBDBDB"/>
<path d="M28.6628 38.1055H28.2305V55.518H28.6628V38.1055Z" fill="#DBDBDB"/>
<path d="M22.2176 43.375H19.9801V49.0316H22.2176V43.375Z" fill="#EBEBEB"/>
<path d="M24.704 50.8429H18.4343V46.6797H24.704V50.8429ZM18.6963 50.5809H24.442V46.9417H18.6963V50.5809Z" fill="#DBDBDB"/>
<path d="M112.783 74.4609H92.2371V102.896H112.783V74.4609Z" fill="#EBEBEB"/>
<path d="M113.779 73.4062H91.2415V74.4621H113.779V73.4062Z" fill="#DBDBDB"/>
<path d="M120.866 73.4062H113.779V74.4621H120.866V73.4062Z" fill="#EBEBEB"/>
<path d="M119.744 74.4609H112.783V102.896H119.744V74.4609Z" fill="#DBDBDB"/>
<path d="M110.577 87.6294H94.4405V78.5039H110.577V87.6294ZM94.506 87.5639H110.512V78.5694H94.506V87.5639Z" fill="#C7C7C7"/>
<path d="M103.398 81.1719H100.26V82.9771H103.398V81.1719Z" fill="#C7C7C7"/>
<path d="M104.357 82.8716H101.153V81.2734H104.357V82.8716ZM101.213 82.8061H104.286V81.3389H101.218L101.213 82.8061Z" fill="#C7C7C7"/>
<path d="M110.577 99.0747H94.4405V89.9492H110.577V99.0747ZM94.506 99.0092H110.512V90.0147H94.506V99.0092Z" fill="#C7C7C7"/>
<path d="M103.398 92.6211H100.26V94.4263H103.398V92.6211Z" fill="#C7C7C7"/>
<path d="M104.357 94.3182H101.153V92.7227H104.357V94.3182ZM101.213 94.2527H104.286V92.7882H101.218L101.213 94.2527Z" fill="#C7C7C7"/>
<path d="M113.582 0H113.32V24.759H113.582V0Z" fill="#C7C7C7"/>
<path d="M106.039 31.9032L106.634 33.2158H120.271L120.866 31.9032L115.06 27.8867H111.845L106.039 31.9032Z" fill="#EBEBEB"/>
<path d="M111.442 24.0156L111.845 27.888H115.06L115.463 24.0156H111.442Z" fill="#DBDBDB"/>
<path d="M106.039 31.9062L106.637 33.2162H120.271L120.866 31.9062H106.039Z" fill="#DBDBDB"/>
<path d="M98.6377 0H98.3757V17.1191H98.6377V0Z" fill="#C7C7C7"/>
<path d="M91.0922 24.2652L91.6895 25.5752H105.324L105.919 24.2652L100.115 20.2461H96.8981L91.0922 24.2652Z" fill="#EBEBEB"/>
<path d="M96.4946 16.3789L96.8981 20.2486H100.115L100.516 16.3789H96.4946Z" fill="#DBDBDB"/>
<path d="M91.0948 24.2656L91.6895 25.5782H105.327L105.919 24.2656H91.0948Z" fill="#DBDBDB"/>
<path d="M65.5 119.4C94.1952 119.4 117.457 116.599 117.457 113.143C117.457 109.688 94.1952 106.887 65.5 106.887C36.8048 106.887 13.5428 109.688 13.5428 113.143C13.5428 116.599 36.8048 119.4 65.5 119.4Z" fill="#EBEBEB"/>
<path d="M10.1342 102.897L23.9756 102.834L37.8171 102.81L65.5 102.766L93.1829 102.81L107.024 102.834L120.866 102.897L107.024 102.962L93.1829 102.983L65.5 103.028L37.8171 102.983L23.9756 102.96L10.1342 102.897Z" fill="#263238"/>
<path d="M83.5518 12.6445H41.155C40.5864 12.6497 40.0243 12.7668 39.501 12.9892C38.9777 13.2117 38.5033 13.5351 38.105 13.9409C37.7067 14.3468 37.3923 14.8271 37.1797 15.3545C36.9671 15.8819 36.8605 16.4461 36.866 17.0147V106.799C36.8563 107.947 37.3024 109.052 38.1065 109.872C38.9107 110.691 40.007 111.158 41.155 111.17H83.5518C84.7005 111.159 85.7978 110.692 86.6029 109.873C87.408 109.053 87.8551 107.948 87.846 106.799V17.0147C87.8558 15.8658 87.4089 14.7601 86.6037 13.9406C85.7984 13.1211 84.7007 12.6549 83.5518 12.6445ZM85.1631 104.101C85.1631 106.399 83.4418 108.256 81.3196 108.256H43.3925C41.265 108.256 39.5437 106.399 39.5437 104.101V20.3238C39.5437 15.6418 41.265 15.4139 43.3925 15.4139H50.9905C51.4306 15.4139 51.7922 15.9169 51.7922 16.5379V16.7999C51.7922 18.2566 52.5782 18.2618 53.5686 18.2618H71.1383C72.126 18.2618 72.9199 18.2618 72.9199 16.7999V16.5379C72.9199 15.9169 73.2762 15.4139 73.7242 15.4139H81.3222C83.4444 15.4139 85.1657 16.0374 85.1657 20.3238L85.1631 104.101Z" fill="#263238"/>
<path d="M85.1631 20.3239V104.101C85.1631 106.399 83.4418 108.256 81.3196 108.256H43.3925C41.265 108.256 39.5437 106.399 39.5437 104.101V20.3239C39.5437 15.642 41.265 15.4141 43.3925 15.4141H50.9905C51.4306 15.4141 51.7922 15.9171 51.7922 16.538V16.8C51.7922 18.2568 52.5782 18.262 53.5686 18.262H71.1383C72.126 18.262 72.9199 18.262 72.9199 16.8V16.538C72.9199 15.9171 73.2762 15.4141 73.7242 15.4141H81.3222C83.4418 15.4141 85.1631 16.0376 85.1631 20.3239Z" fill="white"/>
<path d="M85.1631 20.3213V104.101C85.1631 106.399 83.4418 108.256 81.3196 108.256H43.3925C41.265 108.256 39.5437 106.399 39.5437 104.101V20.3213C39.5437 15.642 41.265 15.4141 43.3925 15.4141H50.9905C51.4306 15.4141 51.7922 15.9171 51.7922 16.538V16.8C51.7922 18.2594 52.5782 18.2646 53.5686 18.2646H71.1383C72.126 18.2646 72.9199 18.2646 72.9199 16.8V16.538C72.9199 15.9171 73.2762 15.4141 73.7242 15.4141H81.3222C83.4418 15.4141 85.1631 16.0376 85.1631 20.3213Z" fill="white"/>
<path d="M85.1631 20.3239V27.5578H39.5437V20.3239C39.5437 15.642 41.265 15.4141 43.3925 15.4141H50.9905C51.4306 15.4141 51.7922 15.9171 51.7922 16.538V16.8C51.7922 18.2568 52.5782 18.262 53.5686 18.262H71.1383C72.126 18.262 72.9199 18.262 72.9199 16.8V16.538C72.9199 15.9171 73.2762 15.4141 73.7242 15.4141H81.3222C83.4418 15.4141 85.1631 16.0376 85.1631 20.3239Z" fill="#24A1FD"/>
<path d="M49.6778 17.2416C49.6543 17.2652 49.6281 17.2888 49.6045 17.315L49.5626 17.3569C49.4698 17.2637 49.3596 17.1898 49.2382 17.1394C49.1168 17.0889 48.9866 17.063 48.8552 17.063C48.7237 17.063 48.5935 17.0889 48.4721 17.1394C48.3507 17.1898 48.2405 17.2637 48.1478 17.3569L48.1085 17.315C48.0849 17.2914 48.0587 17.2678 48.0351 17.2416L48.1294 17.1578C48.1951 17.1036 48.2673 17.0579 48.3443 17.0215C48.4337 16.9764 48.5289 16.9438 48.6272 16.9246L48.7713 16.9062H48.8945H48.9914C49.0809 16.9166 49.1689 16.9377 49.2534 16.9691C49.3143 16.9917 49.3731 17.0198 49.4289 17.053C49.4893 17.0868 49.5463 17.1263 49.5992 17.1709L49.6752 17.239L49.6778 17.2416Z" fill="white"/>
<path d="M48.381 17.5892L48.2657 17.4739C48.3922 17.3444 48.558 17.2605 48.7373 17.2355C48.8658 17.2165 48.997 17.2279 49.1203 17.2689C49.2437 17.3098 49.3557 17.3792 49.4473 17.4713L49.3294 17.5865C49.2033 17.4614 49.0328 17.3912 48.8552 17.3912C48.6775 17.3912 48.5071 17.4614 48.381 17.5865V17.5892Z" fill="white"/>
<path d="M49.2141 17.7042L49.0988 17.8195C49.0674 17.7868 49.0295 17.761 48.9875 17.7439C48.9456 17.7268 48.9005 17.7186 48.8552 17.7199C48.81 17.7195 48.7652 17.7281 48.7233 17.7452C48.6815 17.7623 48.6435 17.7875 48.6115 17.8195L48.4962 17.7042C48.5432 17.6568 48.5991 17.6192 48.6607 17.5936C48.7223 17.5679 48.7884 17.5547 48.8552 17.5547C48.9219 17.5547 48.988 17.5679 49.0496 17.5936C49.1112 17.6192 49.1671 17.6568 49.2141 17.7042Z" fill="white"/>
<path d="M48.96 17.9212C48.96 17.9419 48.9538 17.9622 48.9423 17.9794C48.9308 17.9967 48.9144 18.0101 48.8953 18.018C48.8761 18.026 48.8551 18.028 48.8347 18.024C48.8144 18.0199 48.7957 18.01 48.7811 17.9953C48.7664 17.9807 48.7564 17.962 48.7524 17.9417C48.7483 17.9213 48.7504 17.9003 48.7583 17.8811C48.7663 17.862 48.7797 17.8456 48.7969 17.8341C48.8142 17.8226 48.8344 17.8164 48.8552 17.8164C48.883 17.8164 48.9096 17.8274 48.9293 17.8471C48.9489 17.8668 48.96 17.8934 48.96 17.9212Z" fill="white"/>
<path d="M42.52 17.4628C42.5195 17.4025 42.537 17.3433 42.5702 17.293C42.6034 17.2426 42.6508 17.2032 42.7064 17.1799C42.7621 17.1566 42.8234 17.1503 42.8826 17.162C42.9418 17.1736 42.9962 17.2026 43.0388 17.2453C43.0815 17.2879 43.1105 17.3423 43.1221 17.4015C43.1338 17.4607 43.1276 17.522 43.1042 17.5777C43.0809 17.6333 43.0415 17.6808 42.9912 17.714C42.9408 17.7471 42.8817 17.7646 42.8213 17.7641C42.7416 17.7634 42.6654 17.7314 42.609 17.6751C42.5527 17.6187 42.5207 17.5425 42.52 17.4628Z" fill="white"/>
<path d="M43.4711 17.4628C43.4706 17.4026 43.4879 17.3436 43.521 17.2932C43.5541 17.2429 43.6014 17.2035 43.6569 17.1801C43.7124 17.1567 43.7735 17.1503 43.8327 17.1618C43.8918 17.1732 43.9462 17.2019 43.989 17.2443C44.0317 17.2867 44.0609 17.3409 44.0729 17.3999C44.0848 17.4589 44.079 17.5202 44.056 17.5759C44.0331 17.6315 43.9942 17.6792 43.9441 17.7127C43.8941 17.7462 43.8352 17.7641 43.775 17.7641C43.6948 17.7641 43.6179 17.7324 43.561 17.676C43.5041 17.6196 43.4718 17.5429 43.4711 17.4628Z" fill="white"/>
<path d="M44.4248 17.4628C44.4242 17.4025 44.4417 17.3433 44.4749 17.293C44.5081 17.2426 44.5555 17.2032 44.6112 17.1799C44.6668 17.1566 44.7281 17.1503 44.7873 17.162C44.8465 17.1736 44.9009 17.2026 44.9436 17.2453C44.9862 17.2879 45.0152 17.3423 45.0269 17.4015C45.0385 17.4607 45.0323 17.522 45.0089 17.5777C44.9856 17.6333 44.9463 17.6808 44.8959 17.714C44.8455 17.7471 44.7864 17.7646 44.7261 17.7641C44.6865 17.7641 44.6473 17.7563 44.6108 17.7411C44.5742 17.726 44.541 17.7038 44.513 17.6758C44.485 17.6479 44.4628 17.6146 44.4477 17.5781C44.4325 17.5415 44.4248 17.5023 44.4248 17.4628Z" fill="white"/>
<path d="M45.3758 17.4628C45.3753 17.4026 45.3927 17.3436 45.4257 17.2932C45.4588 17.2429 45.5061 17.2035 45.5616 17.1801C45.6171 17.1567 45.6783 17.1503 45.7374 17.1618C45.7965 17.1732 45.8509 17.2019 45.8937 17.2443C45.9365 17.2867 45.9657 17.3409 45.9776 17.3999C45.9895 17.4589 45.9837 17.5202 45.9608 17.5759C45.9378 17.6315 45.8989 17.6792 45.8488 17.7127C45.7988 17.7462 45.7399 17.7641 45.6797 17.7641C45.5996 17.7641 45.5227 17.7324 45.4657 17.676C45.4088 17.6196 45.3765 17.5429 45.3758 17.4628Z" fill="white"/>
<path d="M46.3295 17.4628C46.329 17.4027 46.3463 17.3438 46.3792 17.2935C46.4122 17.2432 46.4593 17.2039 46.5147 17.1804C46.57 17.1569 46.6311 17.1504 46.6901 17.1616C46.7492 17.1728 46.8036 17.2013 46.8464 17.2434C46.8893 17.2856 46.9187 17.3395 46.9309 17.3983C46.9432 17.4572 46.9377 17.5183 46.9152 17.574C46.8926 17.6298 46.8541 17.6776 46.8044 17.7114C46.7547 17.7452 46.6961 17.7636 46.636 17.7641C46.596 17.7648 46.5563 17.7575 46.5191 17.7427C46.4819 17.7278 46.4481 17.7058 46.4196 17.6777C46.391 17.6497 46.3684 17.6162 46.3529 17.5793C46.3374 17.5424 46.3295 17.5028 46.3295 17.4628Z" fill="white"/>
<path d="M81.744 18.1202H79.2812V16.9805H81.744V18.1202ZM79.4096 17.997H81.6183V17.1062H79.4096V17.997Z" fill="white"/>
<path d="M81.0733 17.1758H79.4856V17.9277H81.0733V17.1758Z" fill="white"/>
<path d="M81.9641 17.2461H81.744V17.8566H81.9641V17.2461Z" fill="white"/>
<path d="M43.7042 24.8811L42.3549 23.6183L43.7042 22.3555L43.9112 22.5782L42.8029 23.6183L43.9112 24.6584L43.7042 24.8811Z" fill="white"/>
<path d="M81.0078 22.3555L82.3571 23.6183L81.0078 24.8811L80.8008 24.6584L81.9091 23.6183L80.8008 22.5782L81.0078 22.3555Z" fill="white"/>
<path d="M64.7507 16.4476H59.9587C59.8804 16.4469 59.8055 16.4155 59.7501 16.3601C59.6948 16.3047 59.6633 16.2298 59.6627 16.1515C59.6633 16.0732 59.6948 15.9983 59.7501 15.9429C59.8055 15.8876 59.8804 15.8562 59.9587 15.8555H64.7507C64.8292 15.8555 64.9045 15.8867 64.96 15.9422C65.0156 15.9977 65.0468 16.073 65.0468 16.1515C65.0468 16.23 65.0156 16.3054 64.96 16.3609C64.9045 16.4164 64.8292 16.4476 64.7507 16.4476Z" fill="white"/>
<path d="M82.0715 31.1641H42.6405V41.0755H82.0715V31.1641Z" fill="#EBEBEB"/>
<path d="M48.3993 39.5848C47.7142 39.5828 47.045 39.3777 46.4764 38.9956C45.9077 38.6135 45.4651 38.0714 45.2043 37.4378C44.9436 36.8043 44.8764 36.1076 45.0114 35.436C45.1463 34.7643 45.4773 34.1476 45.9624 33.6639C46.4476 33.1802 47.0653 32.8511 47.7374 32.7182C48.4095 32.5853 49.1059 32.6545 49.7386 32.9172C50.3714 33.1799 50.9121 33.6241 51.2926 34.1939C51.673 34.7637 51.876 35.4335 51.876 36.1186C51.8757 36.5746 51.7854 37.026 51.6104 37.4471C51.4355 37.8682 51.1792 38.2506 50.8563 38.5725C50.5334 38.8945 50.1502 39.1496 49.7286 39.3233C49.307 39.497 48.8552 39.5859 48.3993 39.5848ZM48.3993 33.137C47.8088 33.1365 47.2315 33.3112 46.7404 33.6389C46.2492 33.9666 45.8663 34.4326 45.6401 34.978C45.4139 35.5234 45.3546 36.1236 45.4697 36.7028C45.5847 37.2819 45.869 37.8138 46.2865 38.2313C46.704 38.6488 47.236 38.9331 47.8151 39.0482C48.3942 39.1632 48.9945 39.1039 49.5399 38.8777C50.0852 38.6515 50.5513 38.2686 50.879 37.7775C51.2067 37.2864 51.3813 36.709 51.3808 36.1186C51.3794 35.3283 51.0649 34.5707 50.506 34.0118C49.9472 33.453 49.1896 33.1384 48.3993 33.137Z" fill="#DBDBDB"/>
<path d="M47.0976 34.4385L46.7197 34.8164L49.7005 37.7973L50.0785 37.4193L47.0976 34.4385Z" fill="#DBDBDB"/>
<path d="M46.7203 37.4228L47.0982 37.8008L50.0791 34.8199L49.7011 34.442L46.7203 37.4228Z" fill="#DBDBDB"/>
<path d="M79.7764 33.4805H54.4122V33.9599H79.7764V33.4805Z" fill="#DBDBDB"/>
<path d="M79.7764 35.3945H54.4122V35.874H79.7764V35.3945Z" fill="#DBDBDB"/>
<path d="M75.118 36.3555H54.4122V36.8349H75.118V36.3555Z" fill="#DBDBDB"/>
<path d="M68.1541 37.3203H54.4122V37.7998H68.1541V37.3203Z" fill="#DBDBDB"/>
<path d="M75.118 38.2852H54.4122V38.7646H75.118V38.2852Z" fill="#DBDBDB"/>
<path d="M82.0715 56.5859H42.6405V66.4974H82.0715V56.5859Z" fill="#EBEBEB"/>
<path d="M48.3993 65.0054C47.7148 65.0028 47.0464 64.7975 46.4786 64.4153C45.9107 64.0331 45.4688 63.4913 45.2086 62.8582C44.9485 62.225 44.8818 61.529 45.0169 60.858C45.152 60.187 45.4829 59.5711 45.9678 59.088C46.4528 58.6049 47.0699 58.2763 47.7415 58.1437C48.413 58.0111 49.1087 58.0805 49.7409 58.343C50.373 58.6056 50.9132 59.0495 51.2932 59.6188C51.6732 60.1881 51.876 60.8573 51.876 61.5417C51.8757 61.9976 51.7854 62.4489 51.6104 62.8698C51.4354 63.2908 51.1791 63.673 50.8561 63.9948C50.5332 64.3165 50.15 64.5714 49.7284 64.7448C49.3068 64.9182 48.8551 65.0068 48.3993 65.0054ZM48.3993 58.5576C47.8089 58.557 47.2317 58.7316 46.7406 59.0592C46.2495 59.3868 45.8667 59.8527 45.6404 60.3979C45.4141 60.9432 45.3546 61.5433 45.4695 62.1223C45.5843 62.7014 45.8684 63.2333 46.2856 63.6509C46.7028 64.0686 47.2346 64.353 47.8135 64.4684C48.3925 64.5837 48.9926 64.5248 49.538 64.299C50.0835 64.0732 50.5497 63.6907 50.8777 63.1999C51.2057 62.7091 51.3808 62.1321 51.3808 61.5417C51.3801 60.751 51.0659 59.9927 50.5069 59.4333C49.948 58.8739 49.1901 58.5589 48.3993 58.5576Z" fill="#DBDBDB"/>
<path d="M47.0977 59.8603L46.7198 60.2383L49.7007 63.2191L50.0786 62.8412L47.0977 59.8603Z" fill="#DBDBDB"/>
<path d="M46.7204 62.8447L47.0983 63.2227L50.0792 60.2418L49.7013 59.8639L46.7204 62.8447Z" fill="#DBDBDB"/>
<path d="M79.7764 58.8984H54.4122V59.3779H79.7764V58.8984Z" fill="#DBDBDB"/>
<path d="M79.7764 60.8125H54.4122V61.292H79.7764V60.8125Z" fill="#DBDBDB"/>
<path d="M75.118 61.7773H54.4122V62.2568H75.118V61.7773Z" fill="#DBDBDB"/>
<path d="M68.1541 62.7422H54.4122V63.2216H68.1541V62.7422Z" fill="#DBDBDB"/>
<path d="M75.118 63.707H54.4122V64.1865H75.118V63.707Z" fill="#DBDBDB"/>
<path d="M82.0715 69.4609H42.6405V79.3724H82.0715V69.4609Z" fill="#EBEBEB"/>
<path d="M48.3993 77.8843C47.7153 77.8817 47.0473 77.6766 46.4797 77.2949C45.9121 76.9132 45.4701 76.372 45.2097 75.7395C44.9492 75.107 44.8819 74.4115 45.0162 73.7408C45.1505 73.07 45.4803 72.4541 45.9642 71.9706C46.4481 71.4871 47.0643 71.1577 47.7351 71.0239C48.4059 70.8901 49.1013 70.958 49.7337 71.2189C50.366 71.4799 50.9069 71.9222 51.2881 72.4901C51.6694 73.058 51.874 73.7261 51.8761 74.4102C51.8771 74.8669 51.7879 75.3194 51.6135 75.7415C51.4391 76.1636 51.183 76.5471 50.8599 76.87C50.5368 77.1928 50.1531 77.4486 49.7308 77.6227C49.3086 77.7968 48.8561 77.8857 48.3993 77.8843ZM48.3993 71.4365C47.8085 71.4359 47.2309 71.6108 46.7396 71.9389C46.2483 72.2669 45.8654 72.7334 45.6394 73.2793C45.4135 73.8251 45.3546 74.4258 45.4703 75.0051C45.586 75.5844 45.8711 76.1164 46.2894 76.5336C46.7077 76.9507 47.2404 77.2344 47.82 77.3486C48.3996 77.4627 49.0001 77.4023 49.5454 77.1749C50.0906 76.9475 50.5561 76.5634 50.8829 76.0712C51.2096 75.579 51.383 75.0009 51.3809 74.4102C51.3774 73.6212 51.0619 72.8656 50.5033 72.3085C49.9447 71.7513 49.1883 71.4378 48.3993 71.4365Z" fill="#DBDBDB"/>
<path d="M47.097 72.7353L46.7191 73.1133L49.6999 76.0941L50.0779 75.7162L47.097 72.7353Z" fill="#DBDBDB"/>
<path d="M46.717 75.7197L47.095 76.0977L50.0758 73.1168L49.6979 72.7389L46.717 75.7197Z" fill="#DBDBDB"/>
<path d="M79.7764 71.7734H54.4122V72.2529H79.7764V71.7734Z" fill="#DBDBDB"/>
<path d="M79.7764 73.6914H54.4122V74.1709H79.7764V73.6914Z" fill="#DBDBDB"/>
<path d="M75.118 74.6562H54.4122V75.1357H75.118V74.6562Z" fill="#DBDBDB"/>
<path d="M68.1541 75.6172H54.4122V76.0967H68.1541V75.6172Z" fill="#DBDBDB"/>
<path d="M75.118 76.582H54.4122V77.0615H75.118V76.582Z" fill="#DBDBDB"/>
<path d="M82.0715 82.3359H42.6405V92.2474H82.0715V82.3359Z" fill="#EBEBEB"/>
<path d="M48.3993 90.7554C47.7148 90.7528 47.0464 90.5475 46.4786 90.1653C45.9107 89.7831 45.4688 89.2413 45.2086 88.6082C44.9485 87.975 44.8818 87.279 45.0169 86.608C45.152 85.937 45.4829 85.3211 45.9678 84.838C46.4528 84.3549 47.0699 84.0263 47.7415 83.8937C48.413 83.7611 49.1087 83.8305 49.7409 84.093C50.373 84.3556 50.9132 84.7995 51.2932 85.3688C51.6732 85.9381 51.876 86.6073 51.876 87.2917C51.8757 87.7476 51.7854 88.1989 51.6104 88.6198C51.4354 89.0408 51.1791 89.423 50.8561 89.7448C50.5332 90.0665 50.15 90.3214 49.7284 90.4948C49.3068 90.6682 48.8551 90.7568 48.3993 90.7554ZM48.3993 84.3076C47.8089 84.307 47.2317 84.4816 46.7406 84.8092C46.2495 85.1368 45.8667 85.6027 45.6404 86.1479C45.4141 86.6932 45.3546 87.2933 45.4695 87.8723C45.5843 88.4514 45.8684 88.9833 46.2856 89.4009C46.7028 89.8186 47.2346 90.103 47.8135 90.2184C48.3925 90.3337 48.9926 90.2748 49.538 90.049C50.0835 89.8232 50.5497 89.4407 50.8777 88.9499C51.2057 88.4591 51.3808 87.8821 51.3808 87.2917C51.3801 86.501 51.0659 85.7427 50.5069 85.1833C49.948 84.6239 49.1901 84.309 48.3993 84.3076Z" fill="#DBDBDB"/>
<path d="M47.0989 85.6064L46.7209 85.9844L49.7018 88.9652L50.0797 88.5873L47.0989 85.6064Z" fill="#DBDBDB"/>
<path d="M46.7216 88.5947L47.0995 88.9727L50.0804 85.9918L49.7024 85.6139L46.7216 88.5947Z" fill="#DBDBDB"/>
<path d="M79.7764 84.6484H54.4122V85.1279H79.7764V84.6484Z" fill="#DBDBDB"/>
<path d="M79.7764 86.5664H54.4122V87.0459H79.7764V86.5664Z" fill="#DBDBDB"/>
<path d="M75.118 87.5312H54.4122V88.0107H75.118V87.5312Z" fill="#DBDBDB"/>
<path d="M68.1541 88.4922H54.4122V88.9716H68.1541V88.4922Z" fill="#DBDBDB"/>
<path d="M75.118 89.4531H54.4122V89.9326H75.118V89.4531Z" fill="#DBDBDB"/>
<path d="M83.3632 43.5195H41.3463V54.0808H83.3632V43.5195Z" fill="#24A1FD"/>
<path d="M84.2828 55.0442H40.4293V42.5547H84.2828V55.0442ZM40.6913 54.7822H84.0208V42.8167H40.6913V54.7822Z" fill="#24A1FD"/>
<path d="M46.9714 50.708L45.533 49.2539L46.0177 48.7744L46.8561 49.6259L48.601 46.8906L49.1722 47.2574L46.9714 50.708Z" fill="white"/>
<path d="M47.4823 52.4886C46.7522 52.4886 46.0384 52.2721 45.4314 51.8665C44.8243 51.4608 44.3511 50.8843 44.0717 50.2098C43.7923 49.5352 43.7192 48.793 43.8616 48.0769C44.0041 47.3608 44.3557 46.703 44.8719 46.1867C45.3882 45.6704 46.046 45.3188 46.7621 45.1764C47.4782 45.034 48.2204 45.1071 48.895 45.3865C49.5695 45.6659 50.1461 46.139 50.5517 46.7461C50.9574 47.3532 51.1739 48.0669 51.1739 48.797C51.1732 49.7759 50.784 50.7145 50.0919 51.4066C49.3997 52.0988 48.4611 52.4879 47.4823 52.4886ZM47.4823 45.619C46.8531 45.619 46.238 45.8056 45.7149 46.1552C45.1918 46.5048 44.7841 47.0017 44.5435 47.5831C44.3028 48.1644 44.24 48.8041 44.3629 49.4212C44.4859 50.0382 44.7891 50.605 45.2341 51.0497C45.6792 51.4944 46.2462 51.7971 46.8634 51.9196C47.4805 52.042 48.1202 51.9786 48.7013 51.7375C49.2824 51.4963 49.779 51.0883 50.1282 50.5649C50.4774 50.0414 50.6635 49.4262 50.663 48.797C50.6623 47.9539 50.3269 47.1456 49.7304 46.5497C49.134 45.9537 48.3254 45.619 47.4823 45.619Z" fill="white"/>
<path d="M80.9213 45.9805H53.8908V46.4914H80.9213V45.9805Z" fill="white"/>
<path d="M80.9213 48.0234H53.8908V48.5343H80.9213V48.0234Z" fill="white"/>
<path d="M75.9564 49.0508H53.8908V49.5617H75.9564V49.0508Z" fill="white"/>
<path d="M68.534 50.0781H53.8908V50.589H68.534V50.0781Z" fill="white"/>
<path d="M75.9564 51.1016H53.8908V51.6125H75.9564V51.1016Z" fill="white"/>
<path d="M59.364 102.362C59.3645 102.491 59.3268 102.617 59.2556 102.724C59.1844 102.831 59.0829 102.915 58.9641 102.964C58.8452 103.014 58.7144 103.027 58.5881 103.002C58.4618 102.977 58.3458 102.915 58.2548 102.824C58.1637 102.733 58.1018 102.617 58.0768 102.491C58.0518 102.364 58.0649 102.234 58.1144 102.115C58.1639 101.996 58.2476 101.894 58.3549 101.823C58.4621 101.752 58.5881 101.714 58.7168 101.715C58.8882 101.716 59.0524 101.784 59.1737 101.905C59.2949 102.026 59.3633 102.191 59.364 102.362Z" fill="#DBDBDB"/>
<path d="M62.356 103.428C62.9435 103.428 63.4197 102.952 63.4197 102.365C63.4197 101.777 62.9435 101.301 62.356 101.301C61.7685 101.301 61.2923 101.777 61.2923 102.365C61.2923 102.952 61.7685 103.428 62.356 103.428Z" fill="#DBDBDB"/>
<path d="M66.645 102.362C66.6455 102.491 66.6078 102.616 66.5367 102.724C66.4657 102.831 66.3644 102.915 66.2457 102.964C66.127 103.014 65.9963 103.027 65.8701 103.002C65.7439 102.977 65.6278 102.916 65.5367 102.825C65.4456 102.734 65.3834 102.618 65.3581 102.492C65.3329 102.366 65.3456 102.235 65.3947 102.117C65.4438 101.998 65.527 101.896 65.634 101.825C65.7409 101.753 65.8666 101.715 65.9952 101.715C66.1671 101.715 66.332 101.783 66.4537 101.904C66.5755 102.026 66.6443 102.19 66.645 102.362Z" fill="#DBDBDB"/>
<path d="M89.1616 33.9115L89.0564 33.9378C89.0593 33.9257 89.0657 33.9147 89.0748 33.9062L89.1616 33.9115Z" fill="#263238"/>
<path d="M92.1775 109.605H92.1297V109.57L92.1775 109.605Z" fill="#F7A9A0"/>
<path d="M96.4999 43.154C97.8649 49.9215 102.342 60.8076 102.788 62.3482C103.163 63.6582 111.038 61.2058 110.496 60.446C109.802 59.474 102.859 47.2491 99.5233 42.8423C96.7671 39.2057 95.858 39.9734 96.4999 43.154Z" fill="#F7A9A0"/>
<path d="M110.134 59.8906C110.954 60.9701 112.23 64.0512 112.532 65.0808C112.833 66.1105 113.456 69.1314 112.691 69.4379C111.926 69.7444 111.672 68.872 111.672 68.872C111.672 68.872 111.735 70.182 110.939 70.4256C110.142 70.6693 109.786 69.2964 109.786 69.2964C109.786 69.2964 109.754 70.6562 108.942 70.8344C108.13 71.0125 108.004 69.582 108.004 69.582C108.004 69.582 108.033 70.8239 107.299 70.6903C106.419 70.5304 106.626 68.2301 106.217 67.1192C106.123 66.8572 103.967 62.1412 103.967 62.1412L110.134 59.8906Z" fill="#F7A9A0"/>
<path d="M108.148 69.6192C108.298 67.9293 108.07 67.1643 107.305 65.6892C107.289 65.6604 107.328 65.6316 107.347 65.6604C108.23 67.0464 108.657 67.966 108.23 69.6428C108.206 69.7135 108.14 69.6926 108.148 69.6192Z" fill="#263238"/>
<path d="M109.904 69.3464C109.904 67.5779 109.665 66.7448 108.979 65.1309C108.979 65.1073 109.008 65.089 109.018 65.1125C109.825 66.64 110.226 67.5649 109.993 69.3334C109.982 69.4146 109.904 69.4303 109.904 69.3464Z" fill="#263238"/>
<path d="M111.767 68.708C111.643 66.9945 111.421 66.0697 110.551 64.5894C110.546 64.5824 110.544 64.5738 110.546 64.5655C110.547 64.5571 110.552 64.5497 110.559 64.5448C110.566 64.54 110.574 64.5381 110.583 64.5395C110.591 64.541 110.598 64.5458 110.603 64.5527C111.636 65.978 111.913 67.1282 111.816 68.6975C111.811 68.805 111.774 68.8154 111.767 68.708Z" fill="#263238"/>
<path d="M102.733 61.5465C102.733 61.5465 102.83 63.6713 103.079 64.5936C103.328 65.5158 105.518 68.6205 106.223 68.1856C107.124 67.6223 106.223 65.5839 105.633 64.6407C105.633 64.6407 107.729 63.3307 107.378 61.7378C107.027 60.1448 102.733 61.5465 102.733 61.5465Z" fill="#F7A9A0"/>
<path d="M106.411 67.9473C106.862 66.8416 106.024 65.6574 105.534 64.7011C105.526 64.6875 105.521 64.6723 105.521 64.6566C105.52 64.6409 105.523 64.6254 105.53 64.6112C105.537 64.597 105.547 64.5847 105.559 64.5753C105.572 64.5658 105.586 64.5595 105.602 64.557C106.438 63.9544 107.436 62.8592 107.436 61.7719C107.437 61.7667 107.441 61.7621 107.445 61.7589C107.45 61.7557 107.455 61.7539 107.461 61.7539C107.466 61.7539 107.472 61.7557 107.476 61.7589C107.48 61.7621 107.484 61.7667 107.486 61.7719C107.664 62.9352 106.762 64.0906 105.803 64.6932C106.327 65.6626 107.113 66.8914 106.432 67.9577L106.411 67.9473Z" fill="#263238"/>
<path d="M109.715 57.9046C109.715 57.9046 101.714 61.4861 101.528 61.6485C101.528 61.6485 96.3714 45.4045 95.947 42.6562C95.5226 39.9078 96.5208 39.1611 98.2867 41.0842C101.19 44.2334 109.715 57.9046 109.715 57.9046Z" fill="#DBDBDB"/>
<path d="M96.9688 44.2937C96.9688 44.3487 96.9525 44.4024 96.922 44.448C96.8915 44.4937 96.8481 44.5293 96.7974 44.5503C96.7466 44.5713 96.6908 44.5768 96.6369 44.5661C96.5831 44.5554 96.5336 44.529 96.4947 44.4901C96.4559 44.4513 96.4294 44.4018 96.4187 44.3479C96.408 44.2941 96.4135 44.2382 96.4345 44.1875C96.4555 44.1367 96.4911 44.0933 96.5368 44.0628C96.5825 44.0323 96.6362 44.016 96.6911 44.016C96.7648 44.016 96.8354 44.0453 96.8875 44.0974C96.9396 44.1495 96.9688 44.2201 96.9688 44.2937ZM100.084 44.016C100.029 44.016 99.9754 44.0323 99.9297 44.0628C99.884 44.0933 99.8485 44.1367 99.8274 44.1875C99.8064 44.2382 99.8009 44.2941 99.8116 44.3479C99.8223 44.4018 99.8488 44.4513 99.8876 44.4901C99.9265 44.529 99.976 44.5554 100.03 44.5661C100.084 44.5768 100.14 44.5713 100.19 44.5503C100.241 44.5293 100.284 44.4937 100.315 44.448C100.345 44.4024 100.362 44.3487 100.362 44.2937C100.362 44.2201 100.332 44.1495 100.28 44.0974C100.228 44.0453 100.158 44.016 100.084 44.016ZM98.3915 41.5978C98.3366 41.5978 98.2829 41.6141 98.2372 41.6446C98.1915 41.6751 98.1559 41.7185 98.1349 41.7692C98.1139 41.82 98.1084 41.8758 98.1191 41.9297C98.1298 41.9835 98.1563 42.033 98.1951 42.0719C98.234 42.1107 98.2834 42.1372 98.3373 42.1479C98.3912 42.1586 98.447 42.1531 98.4978 42.1321C98.5485 42.111 98.5919 42.0754 98.6224 42.0298C98.6529 41.9841 98.6692 41.9304 98.6692 41.8755C98.6692 41.8383 98.6618 41.8016 98.6473 41.7674C98.6329 41.7331 98.6117 41.7022 98.5851 41.6763C98.5585 41.6504 98.5269 41.6301 98.4923 41.6166C98.4577 41.6031 98.4208 41.5967 98.3836 41.5978H98.3915ZM100.084 48.8735C100.029 48.8704 99.9734 48.8839 99.9257 48.9125C99.878 48.941 99.84 48.9832 99.8165 49.0336C99.7931 49.084 99.7853 49.1403 99.7941 49.1951C99.803 49.25 99.8281 49.3009 99.8663 49.3414C99.9044 49.3818 99.9538 49.4098 100.008 49.4219C100.062 49.4339 100.119 49.4294 100.171 49.409C100.222 49.3885 100.267 49.353 100.298 49.307C100.329 49.2611 100.346 49.2068 100.346 49.1512C100.346 49.0802 100.319 49.0119 100.27 48.9602C100.222 48.9086 100.155 48.8775 100.084 48.8735ZM103.469 48.8735C103.414 48.8745 103.361 48.8917 103.316 48.9228C103.271 48.954 103.236 48.9977 103.216 49.0485C103.196 49.0994 103.191 49.155 103.203 49.2085C103.214 49.2621 103.241 49.3111 103.28 49.3494C103.319 49.3877 103.368 49.4136 103.422 49.4239C103.476 49.4342 103.531 49.4284 103.582 49.4073C103.632 49.3861 103.675 49.3505 103.706 49.305C103.736 49.2594 103.752 49.2059 103.752 49.1512C103.752 49.1136 103.744 49.0764 103.73 49.0418C103.715 49.0073 103.693 48.976 103.666 48.9501C103.639 48.9241 103.607 48.9039 103.571 48.8908C103.536 48.8776 103.499 48.8717 103.461 48.8735H103.469ZM98.3915 46.4552C98.3366 46.4552 98.2829 46.4715 98.2372 46.5021C98.1915 46.5326 98.1559 46.5759 98.1349 46.6267C98.1139 46.6774 98.1084 46.7333 98.1191 46.7871C98.1298 46.841 98.1563 46.8905 98.1951 46.9293C98.234 46.9682 98.2834 46.9946 98.3373 47.0054C98.3912 47.0161 98.447 47.0106 98.4978 46.9895C98.5485 46.9685 98.5919 46.9329 98.6224 46.8873C98.6529 46.8416 98.6692 46.7879 98.6692 46.733C98.6692 46.6958 98.6618 46.6591 98.6473 46.6248C98.6329 46.5906 98.6117 46.5597 98.5851 46.5338C98.5585 46.5079 98.5269 46.4876 98.4923 46.4741C98.4577 46.4606 98.4208 46.4542 98.3836 46.4552H98.3915ZM101.777 46.4552C101.722 46.4552 101.668 46.4715 101.622 46.5021C101.577 46.5326 101.541 46.5759 101.52 46.6267C101.499 46.6774 101.493 46.7333 101.504 46.7871C101.515 46.841 101.541 46.8905 101.58 46.9293C101.619 46.9682 101.668 46.9946 101.722 47.0054C101.776 47.0161 101.832 47.0106 101.883 46.9895C101.934 46.9685 101.977 46.9329 102.007 46.8873C102.038 46.8416 102.054 46.7879 102.054 46.733C102.054 46.6958 102.047 46.6591 102.032 46.6248C102.018 46.5906 101.997 46.5597 101.97 46.5338C101.944 46.5079 101.912 46.4876 101.877 46.4741C101.843 46.4606 101.806 46.4542 101.769 46.4552H101.777ZM100.084 53.731C100.029 53.731 99.9754 53.7473 99.9297 53.7778C99.884 53.8083 99.8485 53.8517 99.8274 53.9024C99.8064 53.9532 99.8009 54.009 99.8116 54.0629C99.8223 54.1168 99.8488 54.1662 99.8876 54.2051C99.9265 54.2439 99.976 54.2704 100.03 54.2811C100.084 54.2918 100.14 54.2863 100.19 54.2653C100.241 54.2443 100.284 54.2087 100.315 54.163C100.345 54.1173 100.362 54.0636 100.362 54.0087C100.362 53.9351 100.332 53.8644 100.28 53.8123C100.228 53.7602 100.158 53.731 100.084 53.731ZM103.469 53.731C103.414 53.731 103.36 53.7473 103.315 53.7778C103.269 53.8083 103.233 53.8517 103.212 53.9024C103.191 53.9532 103.186 54.009 103.197 54.0629C103.207 54.1168 103.234 54.1662 103.273 54.2051C103.312 54.2439 103.361 54.2704 103.415 54.2811C103.469 54.2918 103.525 54.2863 103.575 54.2653C103.626 54.2443 103.669 54.2087 103.7 54.163C103.73 54.1173 103.747 54.0636 103.747 54.0087C103.747 53.9716 103.739 53.9348 103.725 53.9006C103.71 53.8664 103.689 53.8354 103.663 53.8095C103.636 53.7836 103.604 53.7633 103.57 53.7498C103.535 53.7363 103.498 53.7299 103.461 53.731H103.469ZM106.854 53.731C106.799 53.731 106.745 53.7473 106.7 53.7778C106.654 53.8083 106.619 53.8517 106.598 53.9024C106.576 53.9532 106.571 54.009 106.582 54.0629C106.592 54.1168 106.619 54.1662 106.658 54.2051C106.697 54.2439 106.746 54.2704 106.8 54.2811C106.854 54.2918 106.91 54.2863 106.96 54.2653C107.011 54.2443 107.054 54.2087 107.085 54.163C107.116 54.1173 107.132 54.0636 107.132 54.0087C107.132 53.9716 107.124 53.9348 107.11 53.9006C107.095 53.8664 107.074 53.8354 107.048 53.8095C107.021 53.7836 106.99 53.7633 106.955 53.7498C106.92 53.7363 106.883 53.7299 106.846 53.731H106.854ZM98.3915 51.3127H98.3391C98.3915 51.4883 98.4439 51.6664 98.4989 51.8367C98.5528 51.809 98.5962 51.7644 98.6223 51.7098C98.6485 51.6551 98.6561 51.5934 98.644 51.534C98.6318 51.4746 98.6005 51.4208 98.5549 51.3809C98.5094 51.3409 98.452 51.317 98.3915 51.3127ZM101.777 51.3127C101.722 51.3127 101.668 51.329 101.622 51.3595C101.577 51.39 101.541 51.4334 101.52 51.4842C101.499 51.5349 101.493 51.5908 101.504 51.6446C101.515 51.6985 101.541 51.748 101.58 51.7868C101.619 51.8257 101.668 51.8521 101.722 51.8628C101.776 51.8735 101.832 51.868 101.883 51.847C101.934 51.826 101.977 51.7904 102.007 51.7447C102.038 51.6991 102.054 51.6454 102.054 51.5904C102.054 51.5533 102.047 51.5165 102.032 51.4823C102.018 51.4481 101.997 51.4171 101.97 51.3912C101.944 51.3653 101.912 51.3451 101.877 51.3316C101.843 51.3181 101.806 51.3117 101.769 51.3127H101.777ZM105.162 51.3127C105.107 51.3127 105.053 51.329 105.007 51.3595C104.962 51.39 104.926 51.4334 104.905 51.4842C104.884 51.5349 104.878 51.5908 104.889 51.6446C104.9 51.6985 104.926 51.748 104.965 51.7868C105.004 51.8257 105.054 51.8521 105.107 51.8628C105.161 51.8735 105.217 51.868 105.268 51.847C105.319 51.826 105.362 51.7904 105.392 51.7447C105.423 51.6991 105.439 51.6454 105.439 51.5904C105.439 51.5533 105.432 51.5165 105.417 51.4823C105.403 51.4481 105.382 51.4171 105.355 51.3912C105.329 51.3653 105.297 51.3451 105.262 51.3316C105.228 51.3181 105.191 51.3117 105.154 51.3127H105.162ZM103.469 58.5885C103.395 58.5885 103.325 58.6177 103.273 58.6698C103.221 58.7219 103.191 58.7925 103.191 58.8662C103.191 58.9398 103.221 59.0105 103.273 59.0626C103.325 59.1146 103.395 59.1439 103.469 59.1439C103.543 59.1439 103.613 59.1146 103.665 59.0626C103.718 59.0105 103.747 58.9398 103.747 58.8662C103.747 58.7925 103.718 58.7219 103.665 58.6698C103.613 58.6177 103.543 58.5885 103.469 58.5885ZM106.854 58.5885C106.78 58.5885 106.71 58.6177 106.658 58.6698C106.606 58.7219 106.576 58.7925 106.576 58.8662C106.576 58.9398 106.606 59.0105 106.658 59.0626C106.71 59.1146 106.78 59.1439 106.854 59.1439C106.928 59.1439 106.998 59.1146 107.05 59.0626C107.103 59.0105 107.132 58.9398 107.132 58.8662C107.132 58.7925 107.103 58.7219 107.05 58.6698C106.998 58.6177 106.928 58.5885 106.854 58.5885ZM101.777 56.1702C101.703 56.1702 101.632 56.1995 101.58 56.2516C101.528 56.3036 101.499 56.3743 101.499 56.4479C101.499 56.5216 101.528 56.5922 101.58 56.6443C101.632 56.6964 101.703 56.7256 101.777 56.7256C101.85 56.7256 101.921 56.6964 101.973 56.6443C102.025 56.5922 102.054 56.5216 102.054 56.4479C102.054 56.3743 102.025 56.3036 101.973 56.2516C101.921 56.1995 101.85 56.1702 101.777 56.1702ZM105.162 56.1702C105.088 56.1702 105.017 56.1995 104.965 56.2516C104.913 56.3036 104.884 56.3743 104.884 56.4479C104.884 56.5216 104.913 56.5922 104.965 56.6443C105.017 56.6964 105.088 56.7256 105.162 56.7256C105.235 56.7256 105.306 56.6964 105.358 56.6443C105.41 56.5922 105.439 56.5216 105.439 56.4479C105.439 56.3743 105.41 56.3036 105.358 56.2516C105.306 56.1995 105.235 56.1702 105.162 56.1702ZM108.547 56.1702C108.492 56.1707 108.438 56.1875 108.393 56.2183C108.348 56.2491 108.313 56.2927 108.292 56.3435C108.271 56.3942 108.266 56.45 108.277 56.5037C108.288 56.5574 108.315 56.6066 108.354 56.6452C108.393 56.6838 108.442 56.71 108.496 56.7205C108.55 56.731 108.606 56.7253 108.656 56.7042C108.707 56.6832 108.75 56.6476 108.78 56.6019C108.811 56.5563 108.827 56.5027 108.827 56.4479C108.827 56.4107 108.819 56.3738 108.804 56.3396C108.789 56.3054 108.768 56.2744 108.741 56.2486C108.714 56.2227 108.683 56.2025 108.648 56.189C108.613 56.1756 108.576 56.1692 108.539 56.1702H108.547ZM101.777 61.0277C101.703 61.0284 101.633 61.0578 101.581 61.1098C101.529 61.1617 101.499 61.232 101.499 61.3054C101.496 61.3639 101.514 61.4214 101.548 61.4689C101.582 61.5164 101.631 61.5511 101.687 61.5674L102.039 61.3971C102.049 61.3677 102.055 61.3367 102.054 61.3054C102.054 61.2683 102.047 61.2315 102.032 61.1973C102.018 61.1631 101.997 61.1321 101.97 61.1062C101.944 61.0803 101.912 61.06 101.877 61.0465C101.843 61.033 101.806 61.0266 101.769 61.0277H101.777Z" fill="white"/>
<path d="M95.9444 42.6616C96.3689 45.4152 101.528 61.654 101.528 61.654C101.666 61.5335 105.751 59.6812 108.251 58.565L97.4195 40.3089C96.209 39.4967 95.596 40.4006 95.9444 42.6616Z" fill="#C7C7C7"/>
<path d="M107.792 56.332C107.813 56.332 107.831 56.353 107.813 56.3635C106.765 56.9608 101.942 59.1302 101.279 59.3398C101.258 59.3398 101.245 59.3136 101.263 59.3057C103.49 58.187 105.701 57.118 107.792 56.332Z" fill="#263238"/>
<path d="M95.9261 39.8373C95.9261 40.0993 95.0064 42.004 93.8301 42.1717C93.4449 42.2267 93.0441 40.136 93.0441 40.136L92.9812 39.9866L92.0851 37.9168L94.3148 35.8051L94.6396 35.5195C94.6396 35.5195 94.8492 36.1012 95.1008 36.8295C95.1008 36.8636 95.1243 36.895 95.1348 36.9317L95.1794 37.0496L95.292 37.3797C95.3208 37.4636 95.3497 37.5474 95.3759 37.6417C95.4021 37.736 95.4309 37.8173 95.4597 37.9037C95.6594 38.5368 95.8152 39.1828 95.9261 39.8373Z" fill="#F7A9A0"/>
<path d="M95.106 36.8295C95.0031 37.4781 94.7602 38.0965 94.3942 38.6417C94.0282 39.1869 93.5478 39.6459 92.9864 39.9866L92.0904 37.9168L94.32 35.8051L94.6449 35.5195C94.6449 35.5195 94.844 36.1012 95.106 36.8295Z" fill="#263238"/>
<path d="M88.4538 35.0401C88.6058 38.9963 90.9821 39.3919 91.8441 39.3186C92.617 39.2504 95.2501 39.0854 95.5121 35.1266C95.7741 31.1677 93.8824 29.9966 92.1061 29.973C90.3297 29.9494 88.294 31.0839 88.4538 35.0401Z" fill="#F7A9A0"/>
<path d="M88.6162 34.1773C88.7053 34.1541 88.7928 34.1252 88.8782 34.0908C88.9743 34.0751 89.0621 34.027 89.1271 33.9546C89.1436 33.9282 89.1507 33.8971 89.1474 33.8663C89.144 33.8354 89.1304 33.8065 89.1088 33.7843C89.0597 33.7459 89.0012 33.7215 88.9394 33.7137C88.8776 33.7058 88.8148 33.7148 88.7577 33.7397C88.6345 33.7723 88.5274 33.8487 88.4564 33.9546C88.4426 33.9797 88.4362 34.0082 88.438 34.0368C88.4397 34.0654 88.4495 34.093 88.4662 34.1163C88.4829 34.1395 88.5059 34.1576 88.5324 34.1684C88.559 34.1792 88.588 34.1823 88.6162 34.1773Z" fill="#263238"/>
<path d="M91.176 34.0413C91.0817 34.0413 90.9952 34.0229 90.914 34.0125C90.8202 34.0143 90.7283 33.9859 90.652 33.9312C90.6304 33.909 90.6168 33.8801 90.6135 33.8492C90.6101 33.8184 90.6173 33.7873 90.6337 33.7609C90.6736 33.7134 90.7255 33.6775 90.784 33.6567C90.8425 33.636 90.9055 33.6313 90.9664 33.643C91.0941 33.6488 91.2152 33.701 91.307 33.7898C91.3289 33.8123 91.3432 33.8411 91.3477 33.8722C91.3523 33.9033 91.3469 33.935 91.3324 33.9628C91.3179 33.9907 91.295 34.0133 91.2669 34.0274C91.2388 34.0414 91.207 34.0463 91.176 34.0413Z" fill="#263238"/>
<path d="M90.6965 35.0742C90.6965 35.0742 90.7201 35.0742 90.7201 35.0978C90.7358 35.3598 90.7961 35.6716 91.0476 35.7397V35.7554C90.7463 35.7397 90.6677 35.331 90.6965 35.0742Z" fill="#263238"/>
<path d="M90.914 34.7695C91.3437 34.7014 91.4511 35.5555 91.0528 35.6288C90.6546 35.7022 90.555 34.8297 90.914 34.7695Z" fill="#263238"/>
<path d="M91.0896 34.7987C91.1708 34.838 91.2546 34.914 91.3516 34.9113C91.4485 34.9087 91.5271 34.8092 91.5847 34.7148C91.5847 34.7148 91.5847 34.7148 91.6005 34.7148C91.624 34.8799 91.5821 35.0554 91.4066 35.1026C91.231 35.1498 91.1131 35.0135 91.0529 34.8537C91.0345 34.8301 91.0555 34.783 91.0896 34.7987Z" fill="#263238"/>
<path d="M89.2425 35.1094C89.2425 35.1094 89.2215 35.1251 89.2241 35.1356C89.2687 35.3976 89.2739 35.712 89.0433 35.8325C89.0433 35.8325 89.0433 35.8508 89.0433 35.8482C89.342 35.7618 89.3263 35.3478 89.2425 35.1094Z" fill="#263238"/>
<path d="M88.9673 34.8477C88.5324 34.8739 88.6136 35.7385 89.0145 35.7175C89.4154 35.6965 89.342 34.8477 88.9673 34.8477Z" fill="#263238"/>
<path d="M88.7918 34.9273C88.7263 34.9797 88.666 35.0714 88.5848 35.0845C88.5036 35.0976 88.4119 35.0112 88.3438 34.9273H88.3307C88.3307 35.0924 88.4119 35.2601 88.5743 35.2784C88.7368 35.2968 88.8154 35.1422 88.8363 34.9719C88.8442 34.9509 88.818 34.9064 88.7918 34.9273Z" fill="#263238"/>
<path d="M90.9585 37.1387C90.9061 37.212 90.8564 37.309 90.762 37.3325C90.6632 37.3474 90.5623 37.3412 90.466 37.3142C90.466 37.3142 90.4503 37.3142 90.466 37.3299C90.5124 37.3762 90.5708 37.4088 90.6346 37.4241C90.6984 37.4393 90.7651 37.4367 90.8275 37.4164C90.8783 37.394 90.9215 37.3573 90.9517 37.3107C90.9819 37.2642 90.998 37.2099 90.9978 37.1544C90.9874 37.1308 90.9664 37.1282 90.9585 37.1387Z" fill="#263238"/>
<path d="M89.7297 36.2941C89.7194 36.4922 89.7194 36.6908 89.7297 36.8889C89.7297 36.9046 89.7769 36.9098 89.8424 36.9046C90.0075 36.9157 90.1726 36.8813 90.3195 36.8051C90.4664 36.7288 90.5896 36.6137 90.6756 36.4723C90.6768 36.4682 90.6767 36.4638 90.6754 36.4597C90.674 36.4557 90.6715 36.4521 90.668 36.4496C90.6646 36.447 90.6605 36.4455 90.6562 36.4454C90.6519 36.4452 90.6477 36.4464 90.6441 36.4487C90.424 36.6394 90.1485 36.7542 89.8581 36.7762C89.8398 36.7264 89.9 36.0819 89.8581 36.0819C89.7138 36.1122 89.5738 36.1607 89.4415 36.226C89.4415 35.3797 89.5699 34.5413 89.5542 33.6977C89.5525 33.6925 89.5491 33.6879 89.5447 33.6847C89.5402 33.6814 89.5348 33.6797 89.5293 33.6797C89.5238 33.6797 89.5184 33.6814 89.5139 33.6847C89.5095 33.6879 89.5061 33.6925 89.5044 33.6977C89.342 34.5948 89.27 35.5058 89.2896 36.4173C89.287 36.5194 89.659 36.3334 89.7297 36.2941Z" fill="#263238"/>
<path d="M89.866 36.7611C89.9812 36.9127 90.1338 37.0319 90.3088 37.1069C90.4048 37.1446 90.5102 37.151 90.6101 37.1253C90.8276 37.0676 90.8354 36.8633 90.7935 36.6956C90.7715 36.6048 90.739 36.5168 90.6966 36.4336C90.4621 36.6292 90.1709 36.7441 89.866 36.7611Z" fill="#263238"/>
<path d="M90.2957 37.1067C90.3917 37.1443 90.4971 37.1507 90.597 37.125C90.8144 37.0674 90.8223 36.863 90.7803 36.6953C90.6656 36.7013 90.5561 36.7448 90.4685 36.8191C90.3809 36.8934 90.3202 36.9944 90.2957 37.1067Z" fill="#FF9BBC"/>
<path d="M117.261 103.082C117.557 103.661 117.845 104.235 118.12 104.793C118.295 105.142 118.46 105.48 118.615 105.807C119.642 107.918 120.368 109.566 120.25 109.773C119.883 110.413 105.484 118.076 104.892 118.178C104.3 118.281 103.975 116.593 104.297 115.852C104.493 115.399 106.131 113.232 107.37 111.592C108.175 110.544 108.819 109.716 108.819 109.716L107.879 108.047L103.579 100.449L113.226 95.3477C113.226 95.3477 115.348 99.2986 117.261 103.082Z" fill="#F7A9A0"/>
<path d="M104.892 118.178C105.484 118.078 119.886 110.409 120.25 109.77C120.371 109.566 119.642 107.918 118.615 105.804C118.545 105.654 118.469 105.502 118.393 105.348C116.543 106.461 110.189 111.866 107.085 112.946C105.974 113.333 107.009 112.06 107.009 112.06C105.824 113.614 104.475 115.432 104.297 115.841C103.975 116.59 104.3 118.275 104.892 118.178Z" fill="#263238"/>
<path d="M105.811 107.527C105.696 107.469 98.9417 93.025 97.2413 87.6488C95.0327 80.6639 92.4074 67.3176 91.8101 64.6452C90.5807 61.5673 89.7461 58.3462 89.3263 55.0586C89.3263 55.0586 102.256 55.0586 102.256 55.0586C102.256 55.0586 105.646 61.5457 103.899 66.1281C103.752 66.5499 106.49 80.9599 107.74 83.5799C108.822 85.8488 116.729 101.611 116.941 101.721L105.811 107.527Z" fill="#37474F"/>
<path d="M114.911 99.625C113.624 100.149 108.651 102.664 107.412 103.293L106.398 103.817C106.051 103.979 105.716 104.166 105.397 104.378C105.379 104.391 105.397 104.422 105.418 104.417C105.734 104.319 106.041 104.198 106.338 104.053C106.658 103.914 106.975 103.77 107.289 103.623C107.923 103.335 114.266 100.083 114.926 99.6564C114.928 99.6534 114.929 99.65 114.929 99.6465C114.929 99.643 114.929 99.6396 114.927 99.6365C114.925 99.6333 114.923 99.6306 114.92 99.6286C114.917 99.6266 114.914 99.6254 114.911 99.625Z" fill="#263238"/>
<path d="M106.692 103.065C105.602 100.618 100.383 87.8694 99.4657 85.0581C98.5487 82.2469 97.7915 79.433 97.071 76.5903C96.3374 73.7083 95.6484 70.8001 94.9436 67.9024C94.2309 64.9627 93.5314 62.0126 92.9995 59.0363C92.9314 58.659 92.8659 58.2817 92.8004 57.9045C92.8004 57.8783 92.7506 57.8835 92.7559 57.9045C93.1803 60.9096 93.762 63.8912 94.4248 66.8518C95.0877 69.8124 95.8029 72.7127 96.5339 75.6314C97.2466 78.4924 98.0037 81.343 98.8919 84.1569C99.7801 86.9707 106.272 102.759 106.655 103.084C106.676 103.107 106.705 103.092 106.692 103.065Z" fill="#263238"/>
<path d="M89.3237 55.059C89.7454 58.3474 90.5808 61.5693 91.8101 64.6482C92.2607 66.6682 93.8746 74.7955 95.5881 81.6599L102.253 55.0564C102.253 55.0564 89.3237 55.0512 89.3237 55.059Z" fill="#263238"/>
<path d="M95.106 110.529C95.106 111.182 95.0824 111.824 95.0667 112.444C95.0667 112.832 95.0431 113.209 95.03 113.574C94.9514 115.919 94.8231 117.716 94.6213 117.844C94.0004 118.237 77.6856 118.284 77.1145 118.106C76.5433 117.928 77.0464 116.272 77.6778 115.769C78.0603 115.463 80.5179 114.302 82.3938 113.44C83.5938 112.89 84.55 112.458 84.55 112.458L84.4976 110.542L84.364 101.812H95.1401C95.1401 101.812 95.182 106.301 95.106 110.529Z" fill="#F7A9A0"/>
<path d="M97.0317 66.6259C97.0317 66.6259 95.9261 77.1059 95.4099 82.3931C95.2789 83.7031 95.1898 84.7013 95.1479 85.1283C95.1479 85.296 95.127 88.0365 95.1217 91.6207C95.1217 94.7647 95.9077 109.316 95.9077 109.316H83.6776C83.6776 109.316 84.2015 86.6872 84.3849 84.1327C84.4085 83.8367 84.4269 83.5301 84.4478 83.2184C84.9299 75.9872 85.1945 65.46 88.742 55.0586H102.274C102.274 55.0586 102.607 61.0846 99.8272 65.5019C99.822 65.5019 97.8387 66.1726 97.0317 66.6259Z" fill="#37474F"/>
<path d="M94.996 106.671C93.6074 106.584 88.0399 106.671 86.6486 106.689L85.5089 106.715C85.1253 106.708 84.7417 106.73 84.3614 106.781C84.3378 106.781 84.3404 106.823 84.3614 106.825C84.6873 106.876 85.0167 106.901 85.3465 106.901C85.6958 106.915 86.0452 106.926 86.3945 106.933C87.0888 106.948 94.2152 106.804 94.996 106.71C95.0222 106.705 95.0222 106.671 94.996 106.671Z" fill="#263238"/>
<path d="M90.4162 56.5325C89.5027 59.5931 88.754 62.7005 88.1735 65.8413C87.5971 68.9618 87.1464 72.1058 86.8032 75.2602C86.4548 78.4593 86.2137 81.6688 86.0513 84.8809C85.8888 88.093 85.8181 91.2947 85.8129 94.5042C85.8076 97.7137 85.7683 105.652 85.7919 106.053C85.7919 106.079 85.8338 106.079 85.8338 106.053C85.8521 102.862 86.0775 98.945 86.0827 95.7539C86.088 92.5627 86.1482 89.3349 86.2792 86.128C86.4102 82.9211 86.6146 79.7614 86.9264 76.5912C87.2381 73.421 87.66 70.2063 88.2128 67.0413C88.7656 63.8763 89.4154 60.7978 90.1725 57.7141C90.2695 57.3237 90.369 56.9281 90.4712 56.5456C90.4715 56.5389 90.4694 56.5324 90.4654 56.527C90.4613 56.5217 90.4556 56.518 90.4491 56.5164C90.4426 56.5149 90.4358 56.5156 90.4298 56.5186C90.4238 56.5215 90.419 56.5264 90.4162 56.5325Z" fill="#263238"/>
<path d="M101.287 64.9008C100.929 65.2359 100.485 65.4662 100.005 65.5662C99.4971 65.6972 98.9757 65.7758 98.4622 65.8728C97.3218 66.111 96.1647 66.2608 95.0012 66.3208C94.3404 66.3613 93.6773 66.3092 93.0309 66.1662C93.0269 66.1677 93.0235 66.1704 93.021 66.1739C93.0186 66.1774 93.0173 66.1816 93.0173 66.1859C93.0173 66.1902 93.0186 66.1943 93.021 66.1978C93.0235 66.2014 93.0269 66.204 93.0309 66.2055C93.5977 66.3852 94.1816 66.5055 94.7732 66.5645C95.3725 66.6095 95.9747 66.5928 96.5706 66.5147C97.1758 66.4413 97.7784 66.3234 98.3757 66.1977C98.9156 66.0927 99.4485 65.9545 99.9713 65.7837C100.492 65.6287 100.959 65.3321 101.321 64.927C101.328 64.9086 101.302 64.8824 101.287 64.9008Z" fill="#263238"/>
<path d="M77.1171 118.101C77.6909 118.287 94.0004 118.24 94.6239 117.839C94.8257 117.714 94.9541 115.916 95.0327 113.571C95.0327 113.236 95.0562 112.893 95.0641 112.539C93.0572 112.78 84.4217 114.669 80.7222 114.669C79.8236 114.669 81.2462 114.056 81.0759 114.04C79.5275 114.769 77.9791 115.521 77.6699 115.759C77.049 116.27 76.5486 117.902 77.1171 118.101Z" fill="#263238"/>
<path d="M88.8573 51.2806L87.736 57.3066C87.736 57.3066 101.043 57.4926 104.169 57.2726C104.169 57.2726 100.901 44.5446 97.54 40.8949C95.8606 39.0609 93.872 39.205 92.6275 40.481C92.3105 40.8059 88.5115 45.8232 88.1132 47.741C87.77 49.4204 88.8573 51.2806 88.8573 51.2806Z" fill="#DBDBDB"/>
<path d="M90.1987 44.2936C90.198 44.3671 90.1686 44.4373 90.1166 44.4893C90.0647 44.5412 89.9944 44.5707 89.921 44.5714C89.8552 44.5719 89.7916 44.5475 89.7428 44.5032C89.8398 44.3487 89.9393 44.1967 90.0389 44.0421C90.0867 44.0645 90.1271 44.1001 90.1554 44.1446C90.1837 44.1892 90.1987 44.2409 90.1987 44.2936ZM93.306 44.0159C93.2511 44.0159 93.1974 44.0322 93.1517 44.0627C93.1061 44.0932 93.0705 44.1366 93.0495 44.1874C93.0284 44.2381 93.0229 44.294 93.0336 44.3478C93.0444 44.4017 93.0708 44.4512 93.1097 44.49C93.1485 44.5289 93.198 44.5553 93.2519 44.566C93.3057 44.5767 93.3616 44.5712 93.4123 44.5502C93.4631 44.5292 93.5064 44.4936 93.5369 44.4479C93.5675 44.4023 93.5838 44.3486 93.5838 44.2936C93.5841 44.2571 93.5772 44.2208 93.5633 44.187C93.5495 44.1531 93.529 44.1223 93.5032 44.0965C93.4773 44.0706 93.4466 44.0502 93.4127 44.0364C93.3789 44.0225 93.3426 44.0156 93.306 44.0159ZM96.6911 44.0159C96.6361 44.0159 96.5824 44.0322 96.5368 44.0627C96.4911 44.0932 96.4555 44.1366 96.4345 44.1874C96.4135 44.2381 96.408 44.294 96.4187 44.3478C96.4294 44.4017 96.4559 44.4512 96.4947 44.49C96.5335 44.5289 96.583 44.5553 96.6369 44.566C96.6908 44.5767 96.7466 44.5712 96.7974 44.5502C96.8481 44.5292 96.8915 44.4936 96.922 44.4479C96.9525 44.4023 96.9688 44.3486 96.9688 44.2936C96.9688 44.22 96.9395 44.1494 96.8875 44.0973C96.8354 44.0452 96.7647 44.0159 96.6911 44.0159ZM91.7314 41.6239L91.4092 42.064C91.437 42.094 91.4711 42.1174 91.5091 42.1326C91.5471 42.1478 91.5879 42.1545 91.6288 42.1521C91.6696 42.1497 91.7094 42.1383 91.7453 42.1187C91.7812 42.0991 91.8124 42.0719 91.8365 42.0389C91.8607 42.0059 91.8773 41.9679 91.8851 41.9278C91.8929 41.8877 91.8917 41.8463 91.8817 41.8066C91.8716 41.767 91.8529 41.73 91.827 41.6984C91.801 41.6669 91.7684 41.6414 91.7314 41.6239ZM94.9986 41.5977C94.9436 41.5977 94.8899 41.614 94.8443 41.6445C94.7986 41.675 94.763 41.7184 94.742 41.7691C94.721 41.8199 94.7154 41.8757 94.7262 41.9296C94.7369 41.9834 94.7633 42.0329 94.8022 42.0718C94.841 42.1106 94.8905 42.1371 94.9444 42.1478C94.9982 42.1585 95.0541 42.153 95.1048 42.132C95.1556 42.1109 95.1989 42.0754 95.2295 42.0297C95.26 41.984 95.2763 41.9303 95.2763 41.8754C95.2766 41.8388 95.2697 41.8025 95.2558 41.7687C95.242 41.7348 95.2216 41.7041 95.1957 41.6782C95.1698 41.6524 95.1391 41.6319 95.1052 41.6181C95.0714 41.6043 95.0351 41.5973 94.9986 41.5977ZM98.1819 41.6867C98.1573 41.7115 98.1379 41.741 98.1248 41.7734C98.1118 41.8058 98.1053 41.8405 98.1059 41.8754C98.1066 41.9488 98.136 42.0191 98.188 42.071C98.2399 42.1229 98.3102 42.1524 98.3836 42.1531C98.4177 42.1535 98.4515 42.1473 98.4832 42.1348C98.3836 41.9802 98.2814 41.8282 98.1819 41.6867ZM89.921 48.8734C89.8473 48.8734 89.7767 48.9027 89.7246 48.9547C89.6725 49.0068 89.6433 49.0775 89.6433 49.1511C89.6433 49.2248 89.6725 49.2954 89.7246 49.3475C89.7767 49.3996 89.8473 49.4288 89.921 49.4288C89.9946 49.4288 90.0653 49.3996 90.1174 49.3475C90.1695 49.2954 90.1987 49.2248 90.1987 49.1511C90.1987 49.0775 90.1695 49.0068 90.1174 48.9547C90.0653 48.9027 89.9946 48.8734 89.921 48.8734ZM93.306 48.8734C93.2511 48.8734 93.1974 48.8897 93.1517 48.9202C93.1061 48.9507 93.0705 48.9941 93.0495 49.0448C93.0284 49.0956 93.0229 49.1514 93.0336 49.2053C93.0444 49.2592 93.0708 49.3087 93.1097 49.3475C93.1485 49.3863 93.198 49.4128 93.2519 49.4235C93.3057 49.4342 93.3616 49.4287 93.4123 49.4077C93.4631 49.3867 93.5064 49.3511 93.5369 49.3054C93.5675 49.2597 93.5838 49.2061 93.5838 49.1511C93.5841 49.1146 93.5772 49.0783 93.5633 49.0444C93.5495 49.0106 93.529 48.9798 93.5032 48.954C93.4773 48.9281 93.4466 48.9077 93.4127 48.8938C93.3789 48.88 93.3426 48.8731 93.306 48.8734ZM96.6911 48.8734C96.6361 48.8734 96.5824 48.8897 96.5368 48.9202C96.4911 48.9507 96.4555 48.9941 96.4345 49.0448C96.4135 49.0956 96.408 49.1514 96.4187 49.2053C96.4294 49.2592 96.4559 49.3087 96.4947 49.3475C96.5335 49.3863 96.583 49.4128 96.6369 49.4235C96.6908 49.4342 96.7466 49.4287 96.7974 49.4077C96.8481 49.3867 96.8915 49.3511 96.922 49.3054C96.9525 49.2597 96.9688 49.2061 96.9688 49.1511C96.9688 49.0775 96.9395 49.0068 96.8875 48.9547C96.8354 48.9027 96.7647 48.8734 96.6911 48.8734ZM100.076 48.8734C100.021 48.8718 99.9664 48.8868 99.9197 48.9163C99.873 48.9459 99.8362 48.9887 99.814 49.0393C99.7918 49.0899 99.7851 49.146 99.7949 49.2003C99.8048 49.2547 99.8306 49.3049 99.8691 49.3446C99.9076 49.3842 99.957 49.4114 100.011 49.4228C100.065 49.4342 100.121 49.4291 100.173 49.4084C100.224 49.3876 100.268 49.352 100.299 49.3062C100.329 49.2604 100.346 49.2064 100.346 49.1511C100.346 49.0801 100.319 49.0118 100.27 48.9601C100.222 48.9085 100.155 48.8774 100.084 48.8734H100.076ZM88.501 46.6778C88.4538 46.7774 88.4093 46.877 88.37 46.9713C88.411 46.9464 88.4451 46.9114 88.4689 46.8697C88.4928 46.828 88.5056 46.7809 88.5062 46.7329C88.5059 46.7144 88.5041 46.696 88.501 46.6778ZM91.6135 46.4551C91.5399 46.4551 91.4692 46.4844 91.4171 46.5365C91.3651 46.5886 91.3358 46.6592 91.3358 46.7329C91.3358 46.8065 91.3651 46.8772 91.4171 46.9292C91.4692 46.9813 91.5399 47.0106 91.6135 47.0106C91.6872 47.0106 91.7578 46.9813 91.8099 46.9292C91.862 46.8772 91.8912 46.8065 91.8912 46.7329C91.8912 46.6592 91.862 46.5886 91.8099 46.5365C91.7578 46.4844 91.6872 46.4551 91.6135 46.4551ZM94.9986 46.4551C94.9436 46.4551 94.8899 46.4714 94.8443 46.502C94.7986 46.5325 94.763 46.5758 94.742 46.6266C94.721 46.6773 94.7154 46.7332 94.7262 46.787C94.7369 46.8409 94.7633 46.8904 94.8022 46.9292C94.841 46.9681 94.8905 46.9945 94.9444 47.0053C94.9982 47.016 95.0541 47.0105 95.1048 46.9894C95.1556 46.9684 95.1989 46.9328 95.2295 46.8872C95.26 46.8415 95.2763 46.7878 95.2763 46.7329C95.2766 46.6963 95.2697 46.66 95.2558 46.6262C95.242 46.5923 95.2216 46.5616 95.1957 46.5357C95.1698 46.5099 95.1391 46.4894 95.1052 46.4756C95.0714 46.4617 95.0351 46.4548 94.9986 46.4551ZM98.3836 46.4551C98.3287 46.4551 98.275 46.4714 98.2293 46.502C98.1836 46.5325 98.148 46.5758 98.127 46.6266C98.106 46.6773 98.1005 46.7332 98.1112 46.787C98.1219 46.8409 98.1484 46.8904 98.1872 46.9292C98.2261 46.9681 98.2755 46.9945 98.3294 47.0053C98.3833 47.016 98.4391 47.0105 98.4899 46.9894C98.5406 46.9684 98.584 46.9328 98.6145 46.8872C98.645 46.8415 98.6613 46.7878 98.6613 46.7329C98.6613 46.6964 98.6541 46.6603 98.6402 46.6266C98.6262 46.5929 98.6058 46.5623 98.58 46.5365C98.5542 46.5107 98.5236 46.4902 98.4899 46.4763C98.4562 46.4623 98.4201 46.4551 98.3836 46.4551ZM89.921 53.7309C89.8661 53.7309 89.8124 53.7472 89.7667 53.7777C89.721 53.8082 89.6854 53.8516 89.6644 53.9023C89.6434 53.9531 89.6379 54.0089 89.6486 54.0628C89.6593 54.1167 89.6858 54.1661 89.7246 54.205C89.7635 54.2438 89.8129 54.2703 89.8668 54.281C89.9207 54.2917 89.9765 54.2862 90.0273 54.2652C90.078 54.2442 90.1214 54.2086 90.1519 54.1629C90.1824 54.1172 90.1987 54.0635 90.1987 54.0086C90.1991 53.972 90.1921 53.9358 90.1783 53.9019C90.1645 53.8681 90.144 53.8373 90.1182 53.8115C90.0923 53.7856 90.0615 53.7652 90.0277 53.7513C89.9938 53.7375 89.9576 53.7305 89.921 53.7309ZM93.306 53.7309C93.2511 53.7309 93.1974 53.7472 93.1517 53.7777C93.1061 53.8082 93.0705 53.8516 93.0495 53.9023C93.0284 53.9531 93.0229 54.0089 93.0336 54.0628C93.0444 54.1167 93.0708 54.1661 93.1097 54.205C93.1485 54.2438 93.198 54.2703 93.2519 54.281C93.3057 54.2917 93.3616 54.2862 93.4123 54.2652C93.4631 54.2442 93.5064 54.2086 93.5369 54.1629C93.5675 54.1172 93.5838 54.0635 93.5838 54.0086C93.5841 53.972 93.5772 53.9358 93.5633 53.9019C93.5495 53.8681 93.529 53.8373 93.5032 53.8115C93.4773 53.7856 93.4466 53.7652 93.4127 53.7513C93.3789 53.7375 93.3426 53.7305 93.306 53.7309ZM96.6911 53.7309C96.6361 53.7309 96.5824 53.7472 96.5368 53.7777C96.4911 53.8082 96.4555 53.8516 96.4345 53.9023C96.4135 53.9531 96.408 54.0089 96.4187 54.0628C96.4294 54.1167 96.4559 54.1661 96.4947 54.205C96.5335 54.2438 96.583 54.2703 96.6369 54.281C96.6908 54.2917 96.7466 54.2862 96.7974 54.2652C96.8481 54.2442 96.8915 54.2086 96.922 54.1629C96.9525 54.1172 96.9688 54.0635 96.9688 54.0086C96.9688 53.9721 96.9616 53.936 96.9477 53.9023C96.9337 53.8686 96.9132 53.838 96.8875 53.8122C96.8617 53.7864 96.8311 53.766 96.7974 53.752C96.7637 53.7381 96.7275 53.7309 96.6911 53.7309ZM100.076 53.7309C100.021 53.7309 99.9675 53.7472 99.9218 53.7777C99.8762 53.8082 99.8406 53.8516 99.8195 53.9023C99.7985 53.9531 99.793 54.0089 99.8037 54.0628C99.8144 54.1167 99.8409 54.1661 99.8797 54.205C99.9186 54.2438 99.9681 54.2703 100.022 54.281C100.076 54.2917 100.132 54.2862 100.182 54.2652C100.233 54.2442 100.277 54.2086 100.307 54.1629C100.338 54.1172 100.354 54.0635 100.354 54.0086C100.354 53.9363 100.326 53.8668 100.275 53.815C100.225 53.7631 100.156 53.7329 100.084 53.7309H100.076ZM103.22 53.8828C103.199 53.9215 103.188 53.9647 103.189 54.0086C103.187 54.0573 103.2 54.1055 103.224 54.1476C103.249 54.1897 103.285 54.2241 103.328 54.247L103.22 53.8828ZM91.6188 51.3126C91.5638 51.3126 91.5101 51.3289 91.4645 51.3594C91.4188 51.3899 91.3832 51.4333 91.3622 51.4841C91.3412 51.5348 91.3357 51.5907 91.3464 51.6445C91.3571 51.6984 91.3835 51.7479 91.4224 51.7867C91.4612 51.8256 91.5107 51.852 91.5646 51.8627C91.6184 51.8734 91.6743 51.8679 91.725 51.8469C91.7758 51.8259 91.8192 51.7903 91.8497 51.7446C91.8802 51.699 91.8965 51.6453 91.8965 51.5903C91.8968 51.5533 91.8897 51.5166 91.8756 51.4824C91.8614 51.4482 91.8405 51.4172 91.8141 51.3913C91.7877 51.3654 91.7563 51.345 91.7218 51.3315C91.6874 51.318 91.6505 51.3116 91.6135 51.3126H91.6188ZM95.0038 51.3126C94.9489 51.3126 94.8952 51.3289 94.8495 51.3594C94.8038 51.3899 94.7682 51.4333 94.7472 51.4841C94.7262 51.5348 94.7207 51.5907 94.7314 51.6445C94.7421 51.6984 94.7686 51.7479 94.8074 51.7867C94.8463 51.8256 94.8957 51.852 94.9496 51.8627C95.0035 51.8734 95.0593 51.8679 95.1101 51.8469C95.1608 51.8259 95.2042 51.7903 95.2347 51.7446C95.2652 51.699 95.2815 51.6453 95.2815 51.5903C95.2819 51.5533 95.2748 51.5166 95.2606 51.4824C95.2465 51.4482 95.2255 51.4172 95.1991 51.3913C95.1727 51.3654 95.1413 51.345 95.1069 51.3315C95.0724 51.318 95.0356 51.3116 94.9986 51.3126H95.0038ZM98.3888 51.3126C98.3339 51.3126 98.2802 51.3289 98.2345 51.3594C98.1889 51.3899 98.1533 51.4333 98.1323 51.4841C98.1112 51.5348 98.1057 51.5907 98.1164 51.6445C98.1272 51.6984 98.1536 51.7479 98.1925 51.7867C98.2313 51.8256 98.2808 51.852 98.3347 51.8627C98.3885 51.8734 98.4444 51.8679 98.4951 51.8469C98.5459 51.8259 98.5892 51.7903 98.6197 51.7446C98.6503 51.699 98.6666 51.6453 98.6666 51.5903C98.6666 51.5534 98.6592 51.5169 98.6449 51.4828C98.6306 51.4488 98.6097 51.418 98.5834 51.3921C98.557 51.3662 98.5258 51.3459 98.4915 51.3322C98.4572 51.3186 98.4205 51.3119 98.3836 51.3126H98.3888ZM101.774 51.3126C101.719 51.3126 101.665 51.3289 101.62 51.3594C101.574 51.3899 101.538 51.4333 101.517 51.4841C101.496 51.5348 101.491 51.5907 101.501 51.6445C101.512 51.6984 101.539 51.7479 101.577 51.7867C101.616 51.8256 101.666 51.852 101.72 51.8627C101.774 51.8734 101.829 51.8679 101.88 51.8469C101.931 51.8259 101.974 51.7903 102.005 51.7446C102.035 51.699 102.052 51.6453 102.052 51.5903C102.052 51.5534 102.044 51.5169 102.03 51.4828C102.016 51.4488 101.995 51.418 101.968 51.3921C101.942 51.3662 101.911 51.3459 101.877 51.3322C101.842 51.3186 101.806 51.3119 101.769 51.3126H101.774ZM88.2337 56.1701C88.1788 56.1701 88.1251 56.1864 88.0794 56.2169C88.0337 56.2474 87.9982 56.2908 87.9771 56.3415C87.9561 56.3923 87.9506 56.4481 87.9613 56.502C87.972 56.5559 87.9985 56.6054 88.0373 56.6442C88.0762 56.683 88.1257 56.7095 88.1795 56.7202C88.2334 56.7309 88.2892 56.7254 88.34 56.7044C88.3907 56.6834 88.4341 56.6478 88.4646 56.6021C88.4951 56.5565 88.5114 56.5028 88.5114 56.4478C88.5114 56.4109 88.5041 56.3744 88.4898 56.3403C88.4755 56.3063 88.4546 56.2754 88.4282 56.2496C88.4019 56.2237 88.3707 56.2034 88.3364 56.1897C88.3021 56.1761 88.2654 56.1694 88.2285 56.1701H88.2337ZM91.6188 56.1701C91.5638 56.1701 91.5101 56.1864 91.4645 56.2169C91.4188 56.2474 91.3832 56.2908 91.3622 56.3415C91.3412 56.3923 91.3357 56.4481 91.3464 56.502C91.3571 56.5559 91.3835 56.6054 91.4224 56.6442C91.4612 56.683 91.5107 56.7095 91.5646 56.7202C91.6184 56.7309 91.6743 56.7254 91.725 56.7044C91.7758 56.6834 91.8192 56.6478 91.8497 56.6021C91.8802 56.5565 91.8965 56.5028 91.8965 56.4478C91.8965 56.4109 91.8891 56.3744 91.8748 56.3403C91.8606 56.3063 91.8396 56.2754 91.8133 56.2496C91.7869 56.2237 91.7557 56.2034 91.7214 56.1897C91.6871 56.1761 91.6504 56.1694 91.6135 56.1701H91.6188ZM95.0038 56.1701C94.9489 56.1701 94.8952 56.1864 94.8495 56.2169C94.8038 56.2474 94.7682 56.2908 94.7472 56.3415C94.7262 56.3923 94.7207 56.4481 94.7314 56.502C94.7421 56.5559 94.7686 56.6054 94.8074 56.6442C94.8463 56.683 94.8957 56.7095 94.9496 56.7202C95.0035 56.7309 95.0593 56.7254 95.1101 56.7044C95.1608 56.6834 95.2042 56.6478 95.2347 56.6021C95.2652 56.5565 95.2815 56.5028 95.2815 56.4478C95.2815 56.4109 95.2742 56.3744 95.2599 56.3403C95.2456 56.3063 95.2247 56.2754 95.1983 56.2496C95.172 56.2237 95.1407 56.2034 95.1064 56.1897C95.0721 56.1761 95.0355 56.1694 94.9986 56.1701H95.0038ZM98.3888 56.1701C98.3152 56.1701 98.2445 56.1994 98.1925 56.2515C98.1404 56.3035 98.1111 56.3742 98.1111 56.4478C98.1111 56.5215 98.1404 56.5921 98.1925 56.6442C98.2445 56.6963 98.3152 56.7255 98.3888 56.7255C98.4625 56.7255 98.5331 56.6963 98.5852 56.6442C98.6373 56.5921 98.6666 56.5215 98.6666 56.4478C98.6666 56.3742 98.6373 56.3035 98.5852 56.2515C98.5331 56.1994 98.4625 56.1701 98.3888 56.1701ZM101.774 56.1701C101.7 56.1701 101.63 56.1994 101.577 56.2515C101.525 56.3035 101.496 56.3742 101.496 56.4478C101.496 56.5215 101.525 56.5921 101.577 56.6442C101.63 56.6963 101.7 56.7255 101.774 56.7255C101.848 56.7255 101.918 56.6963 101.97 56.6442C102.022 56.5921 102.052 56.5215 102.052 56.4478C102.052 56.3742 102.022 56.3035 101.97 56.2515C101.918 56.1994 101.848 56.1701 101.774 56.1701Z" fill="white"/>
<path d="M100.013 44.9351C100.333 45.6372 100.637 46.342 100.933 47.0547C100.886 46.8398 100.833 46.625 100.773 46.4154C100.773 46.3839 100.812 46.3735 100.823 46.4154C100.938 46.7276 101.018 47.052 101.061 47.3822C102.005 49.6904 102.811 52.0525 103.474 54.4562C103.6 54.9094 103.736 55.3653 103.831 55.8238C103.925 56.2823 104.093 56.7749 104.145 57.2596C104.145 57.2651 104.143 57.2705 104.139 57.2744C104.135 57.2783 104.13 57.2805 104.124 57.2805C104.119 57.2805 104.113 57.2783 104.109 57.2744C104.105 57.2705 104.103 57.2651 104.103 57.2596C103.949 56.8587 103.841 56.429 103.726 56.0151C103.611 55.6011 103.493 55.2291 103.372 54.8203C103.128 54.0081 102.885 53.1959 102.631 52.3864C102.128 50.7855 101.583 49.2057 101.009 47.6258C100.687 46.7219 100.33 45.8311 99.9818 44.9377C99.974 44.9298 100.005 44.9167 100.013 44.9351Z" fill="#263238"/>
<path d="M93.8641 42.8012C93.0467 44.6116 88.7394 51.8926 86.3945 52.6786C82.7265 53.9126 78.2175 53.1266 75.8412 52.9092C74.5154 52.786 75.8254 44.8108 77.2429 45.2824C79.1843 45.9269 83.9055 46.5373 84.6051 46.5164C85.3046 46.4954 88.687 43.0737 91.2782 41.0484C93.6807 39.1725 95.2161 39.8039 93.8641 42.8012Z" fill="#F7A9A0"/>
<path d="M65.5 44.7419C65.4031 45.9025 69.4614 46.065 69.4614 46.065C69.1266 46.2356 68.8623 46.5184 68.7147 46.8641C68.4816 47.485 69.354 48.1217 69.354 48.1217C69.0446 48.3724 68.8174 48.71 68.7016 49.0911C68.5392 49.7094 69.3278 50.4744 69.3278 50.4744C69.1707 50.8622 69.1576 51.2935 69.2911 51.6901C69.6894 52.7381 71.3662 53.063 72.4351 53.2805C73.5041 53.4979 76.656 53.2359 77.442 53.0761L78.9196 45.9104C77.0759 44.9286 75.0878 44.2459 73.0299 43.8878C71.9635 43.7122 65.6231 43.4293 65.5 44.7419Z" fill="#F7A9A0"/>
<path d="M69.5427 45.9652C70.7112 45.7608 71.8797 45.9128 73.0508 45.9992C73.054 45.998 73.0574 45.9976 73.0608 45.9981C73.0641 45.9985 73.0673 45.9997 73.0701 46.0017C73.0729 46.0036 73.0751 46.0062 73.0767 46.0092C73.0783 46.0122 73.0791 46.0155 73.0791 46.0189C73.0791 46.0222 73.0783 46.0256 73.0767 46.0286C73.0751 46.0316 73.0729 46.0341 73.0701 46.0361C73.0673 46.038 73.0641 46.0392 73.0608 46.0397C73.0574 46.0401 73.054 46.0397 73.0508 46.0385C71.8849 45.9416 70.7164 46.0752 69.5479 46.0202C69.5138 46.0202 69.5112 45.9704 69.5427 45.9652Z" fill="#263238"/>
<path d="M69.4064 48.0371C69.677 48.0152 69.9494 48.0302 70.216 48.0816C70.4989 48.1157 70.7845 48.155 71.0675 48.1995C71.6334 48.2912 72.1993 48.3908 72.76 48.5113C72.7862 48.5113 72.7836 48.5558 72.76 48.5506C72.1941 48.4641 71.6282 48.3829 71.0596 48.32C70.774 48.2886 70.4911 48.2572 70.2055 48.231C69.9349 48.2216 69.6661 48.183 69.4038 48.1157C69.3958 48.1124 69.3891 48.1069 69.3844 48.0997C69.3798 48.0925 69.3774 48.084 69.3777 48.0755C69.378 48.0669 69.3809 48.0586 69.386 48.0518C69.3912 48.0449 69.3983 48.0398 69.4064 48.0371Z" fill="#263238"/>
<path d="M69.3619 50.4776C69.6065 50.4606 69.8523 50.4872 70.0876 50.5562L70.8736 50.6899C71.3976 50.7763 71.9059 50.8602 72.4247 50.9283C72.4482 50.9283 72.4456 50.9728 72.4247 50.9702C71.9007 50.9021 71.3767 50.8444 70.8527 50.7737L70.0667 50.6637C69.8273 50.6523 69.5919 50.5973 69.3724 50.5012L69.3619 50.4776Z" fill="#263238"/>
<path d="M79.1083 45.4962L78.4716 54.2156C78.4716 54.2156 85.8862 53.7125 87.06 52.8637C88.4591 51.8523 93.2222 45.2211 94.3305 42.5435C95.4387 39.8658 93.9611 38.9646 91.645 40.7095C89.3289 42.4544 85.2103 45.8892 84.888 46.0517C84.5657 46.2141 79.1083 45.4962 79.1083 45.4962Z" fill="#DBDBDB"/>
<path d="M90.1987 44.2936C90.1987 44.3673 90.1695 44.4379 90.1174 44.49C90.0653 44.5421 89.9946 44.5714 89.921 44.5714C89.8473 44.5714 89.7767 44.5421 89.7246 44.49C89.6725 44.4379 89.6433 44.3673 89.6433 44.2936C89.6433 44.22 89.6725 44.1493 89.7246 44.0973C89.7767 44.0452 89.8473 44.0159 89.921 44.0159C89.9946 44.0159 90.0653 44.0452 90.1174 44.0973C90.1695 44.1493 90.1987 44.22 90.1987 44.2936ZM93.306 44.0159C93.236 44.0169 93.1689 44.0443 93.1182 44.0926C93.0675 44.1409 93.037 44.2066 93.0327 44.2765C93.0283 44.3464 93.0506 44.4154 93.095 44.4696C93.1394 44.5238 93.2026 44.5592 93.272 44.5687L93.534 44.126C93.5084 44.0899 93.474 44.0608 93.4342 44.0416C93.3943 44.0223 93.3502 44.0135 93.306 44.0159ZM91.6135 41.5977C91.5399 41.5977 91.4692 41.6269 91.4171 41.679C91.3651 41.7311 91.3358 41.8017 91.3358 41.8754C91.3358 41.949 91.3651 42.0197 91.4171 42.0718C91.4692 42.1238 91.5399 42.1531 91.6135 42.1531C91.6872 42.1531 91.7578 42.1238 91.8099 42.0718C91.862 42.0197 91.8912 41.949 91.8912 41.8754C91.8912 41.8017 91.862 41.7311 91.8099 41.679C91.7578 41.6269 91.6872 41.5977 91.6135 41.5977ZM79.7659 48.8734C79.711 48.8734 79.6573 48.8897 79.6116 48.9202C79.5659 48.9507 79.5303 48.9941 79.5093 49.0448C79.4883 49.0956 79.4828 49.1514 79.4935 49.2053C79.5042 49.2592 79.5307 49.3087 79.5695 49.3475C79.6083 49.3863 79.6578 49.4128 79.7117 49.4235C79.7656 49.4342 79.8214 49.4287 79.8722 49.4077C79.9229 49.3867 79.9663 49.3511 79.9968 49.3054C80.0273 49.2597 80.0436 49.206 80.0436 49.1511C80.0436 49.1146 80.0364 49.0785 80.0225 49.0448C80.0085 49.0111 79.988 48.9805 79.9623 48.9547C79.9365 48.9289 79.9059 48.9085 79.8722 48.8945C79.8385 48.8806 79.8024 48.8734 79.7659 48.8734ZM83.1509 48.8734C83.0773 48.8734 83.0066 48.9027 82.9545 48.9547C82.9025 49.0068 82.8732 49.0775 82.8732 49.1511C82.8732 49.2248 82.9025 49.2954 82.9545 49.3475C83.0066 49.3996 83.0773 49.4288 83.1509 49.4288C83.2246 49.4288 83.2952 49.3996 83.3473 49.3475C83.3994 49.2954 83.4286 49.2248 83.4286 49.1511C83.4286 49.0775 83.3994 49.0068 83.3473 48.9547C83.2952 48.9027 83.2246 48.8734 83.1509 48.8734ZM86.536 48.8734C86.4623 48.8734 86.3917 48.9027 86.3396 48.9547C86.2875 49.0068 86.2582 49.0775 86.2582 49.1511C86.2582 49.2248 86.2875 49.2954 86.3396 49.3475C86.3917 49.3996 86.4623 49.4288 86.536 49.4288C86.6096 49.4288 86.6802 49.3996 86.7323 49.3475C86.7844 49.2954 86.8137 49.2248 86.8137 49.1511C86.8137 49.0775 86.7844 49.0068 86.7323 48.9547C86.6802 48.9027 86.6096 48.8734 86.536 48.8734ZM89.921 48.8734C89.8473 48.8734 89.7767 48.9027 89.7246 48.9547C89.6725 49.0068 89.6433 49.0775 89.6433 49.1511C89.6433 49.2248 89.6725 49.2954 89.7246 49.3475C89.7767 49.3996 89.8473 49.4288 89.921 49.4288C89.9946 49.4288 90.0653 49.3996 90.1174 49.3475C90.1695 49.2954 90.1987 49.2248 90.1987 49.1511C90.1987 49.0775 90.1695 49.0068 90.1174 48.9547C90.0653 48.9027 89.9946 48.8734 89.921 48.8734ZM81.4584 46.4551C81.3847 46.4551 81.3141 46.4844 81.262 46.5365C81.2099 46.5886 81.1807 46.6592 81.1807 46.7329C81.1807 46.8065 81.2099 46.8772 81.262 46.9292C81.3141 46.9813 81.3847 47.0106 81.4584 47.0106C81.5321 47.0106 81.6027 46.9813 81.6548 46.9292C81.7069 46.8772 81.7361 46.8065 81.7361 46.7329C81.7361 46.6592 81.7069 46.5886 81.6548 46.5365C81.6027 46.4844 81.5321 46.4551 81.4584 46.4551ZM84.8434 46.4551C84.7698 46.4551 84.6991 46.4844 84.6471 46.5365C84.595 46.5886 84.5657 46.6592 84.5657 46.7329C84.5657 46.8065 84.595 46.8772 84.6471 46.9292C84.6991 46.9813 84.7698 47.0106 84.8434 47.0106C84.9171 47.0106 84.9877 46.9813 85.0398 46.9292C85.0919 46.8772 85.1212 46.8065 85.1212 46.7329C85.1212 46.6592 85.0919 46.5886 85.0398 46.5365C84.9877 46.4844 84.9171 46.4551 84.8434 46.4551ZM88.2285 46.4551C88.1548 46.4551 88.0842 46.4844 88.0321 46.5365C87.98 46.5886 87.9508 46.6592 87.9508 46.7329C87.9508 46.8065 87.98 46.8772 88.0321 46.9292C88.0842 46.9813 88.1548 47.0106 88.2285 47.0106C88.3021 47.0106 88.3728 46.9813 88.4249 46.9292C88.4769 46.8772 88.5062 46.8065 88.5062 46.7329C88.5062 46.6592 88.4769 46.5886 88.4249 46.5365C88.3728 46.4844 88.3021 46.4551 88.2285 46.4551ZM91.6135 46.4551C91.5399 46.4551 91.4692 46.4844 91.4171 46.5365C91.3651 46.5886 91.3358 46.6592 91.3358 46.7329C91.3358 46.8065 91.3651 46.8772 91.4171 46.9292C91.4692 46.9813 91.5399 47.0106 91.6135 47.0106C91.6872 47.0106 91.7578 46.9813 91.8099 46.9292C91.862 46.8772 91.8912 46.8065 91.8912 46.7329C91.8912 46.6592 91.862 46.5886 91.8099 46.5365C91.7578 46.4844 91.6872 46.4551 91.6135 46.4551ZM79.7659 53.7309C79.7292 53.7305 79.6928 53.7375 79.6588 53.7513C79.6248 53.7651 79.5939 53.7855 79.5678 53.8113C79.5417 53.8371 79.521 53.8678 79.5069 53.9017C79.4928 53.9356 79.4855 53.9719 79.4855 54.0086C79.4853 54.0525 79.4961 54.0957 79.517 54.1344L80.041 54.0924C80.0493 54.0653 80.0538 54.037 80.0541 54.0086C80.0541 53.9712 80.0466 53.9342 80.032 53.8998C80.0174 53.8654 79.996 53.8343 79.9691 53.8084C79.9422 53.7825 79.9103 53.7623 79.8754 53.7489C79.8405 53.7356 79.8032 53.7295 79.7659 53.7309ZM83.1509 53.7309C83.0978 53.7302 83.0457 53.7458 83.0016 53.7754L83.2374 53.7466C83.2098 53.7359 83.1805 53.7305 83.1509 53.7309ZM81.4584 51.3126C81.4035 51.3126 81.3498 51.3289 81.3041 51.3594C81.2584 51.3899 81.2228 51.4333 81.2018 51.4841C81.1808 51.5348 81.1753 51.5906 81.186 51.6445C81.1967 51.6984 81.2232 51.7479 81.262 51.7867C81.3009 51.8256 81.3503 51.852 81.4042 51.8627C81.4581 51.8734 81.5139 51.8679 81.5647 51.8469C81.6154 51.8259 81.6588 51.7903 81.6893 51.7446C81.7198 51.699 81.7361 51.6453 81.7361 51.5903C81.7365 51.5538 81.7295 51.5175 81.7157 51.4836C81.7019 51.4498 81.6814 51.419 81.6556 51.3932C81.6297 51.3673 81.5989 51.3469 81.5651 51.333C81.5312 51.3192 81.495 51.3123 81.4584 51.3126ZM84.8434 51.3126C84.7885 51.3126 84.7348 51.3289 84.6891 51.3594C84.6435 51.3899 84.6079 51.4333 84.5869 51.4841C84.5658 51.5348 84.5603 51.5906 84.5711 51.6445C84.5818 51.6984 84.6082 51.7479 84.6471 51.7867C84.6859 51.8256 84.7354 51.852 84.7893 51.8627C84.8431 51.8734 84.899 51.8679 84.9497 51.8469C85.0005 51.8259 85.0438 51.7903 85.0744 51.7446C85.1049 51.699 85.1212 51.6453 85.1212 51.5903C85.1215 51.5538 85.1146 51.5175 85.1007 51.4836C85.0869 51.4498 85.0665 51.419 85.0406 51.3932C85.0147 51.3673 84.984 51.3469 84.9501 51.333C84.9163 51.3192 84.88 51.3123 84.8434 51.3126ZM88.2285 51.3126C88.1659 51.3114 88.1047 51.3314 88.0548 51.3693C88.005 51.4073 87.9695 51.461 87.954 51.5217C87.9385 51.5824 87.944 51.6465 87.9696 51.7037C87.9952 51.7608 88.0393 51.8077 88.0949 51.8366C88.2075 51.7082 88.3254 51.5746 88.4486 51.4253C88.424 51.3898 88.391 51.361 88.3526 51.3414C88.3142 51.3217 88.2716 51.3118 88.2285 51.3126Z" fill="white"/>
<path d="M88.742 51.0642C88.8206 50.9489 91.886 46.7596 92.6117 45.5806C92.8423 45.198 93.0833 44.7946 93.3165 44.4382C93.3322 44.4173 93.3689 44.4382 93.3558 44.4644C93.2484 44.7002 93.1593 44.902 93.044 45.109C92.9864 45.2085 92.9314 45.3081 92.8737 45.405C93.0047 45.2688 93.1357 45.143 93.2825 45.0146C93.2852 45.0115 93.2891 45.0096 93.2933 45.0094C93.2975 45.0091 93.3016 45.0106 93.3047 45.0133C93.3079 45.0161 93.3097 45.02 93.31 45.0242C93.3102 45.0284 93.3088 45.0325 93.306 45.0356C93.1803 45.1902 93.0571 45.3448 92.9183 45.4889C92.8554 45.5552 92.7899 45.6181 92.7218 45.6775L92.7061 45.7089C91.5419 47.6016 90.2277 49.3977 88.7761 51.0799C88.7551 51.1061 88.7263 51.0904 88.742 51.0642Z" fill="#263238"/>
<path d="M80.903 46.3497C80.903 46.3261 80.9396 46.3261 80.9396 46.3497C80.9711 47.5549 80.6095 52.8316 80.4811 53.5154C80.4811 53.5364 80.4418 53.5338 80.4418 53.5154C80.5126 51.029 80.6252 48.5741 80.903 46.3497Z" fill="#263238"/>
<path d="M90.6756 29.5232C90.4136 29.6726 88.5796 29.8403 88.2704 31.3206C88.0346 32.4445 88.7787 33.0498 89.8293 33.1362C90.99 33.2305 92.2633 32.4917 92.2633 32.4917C92.5253 33.6366 92.8423 35.1117 93.2746 35.2768C93.6257 35.4156 94.0344 34.9178 94.0344 34.9178C94.4667 35.8112 94.6135 37.8313 94.5087 38.2662C94.265 39.2906 93.4607 40.7971 94.7864 41.8844C95.0772 42.1228 96.2038 42.5158 97.3042 41.9682C98.4046 41.4207 98.4648 40.4984 98.8605 40.1211C99.2561 39.7439 100.563 39.5971 100.87 38.8111C101.177 38.0251 100.954 37.1867 101.082 36.8016C101.211 36.4165 101.735 36.2593 101.771 35.4706C101.808 34.682 101.014 34.5065 100.697 33.9615C100.474 33.5816 100.697 33.0681 100.189 32.552C99.5024 31.8419 98.5382 32.4367 97.7941 31.724C97.2125 31.166 95.6326 28.973 93.5602 28.7346C92.5336 28.6237 91.503 28.9054 90.6756 29.5232Z" fill="#263238"/>
<path d="M95.4335 29.5273C95.9316 29.9222 96.4033 30.3493 96.8457 30.8059C97.0788 31.0181 97.3015 31.2408 97.5504 31.4321C97.6676 31.5284 97.7961 31.6102 97.933 31.6757C97.963 31.6932 97.9958 31.7056 98.0299 31.7124C98.064 31.7223 98.0992 31.7276 98.1347 31.7281C98.2133 31.7281 98.2945 31.7281 98.3757 31.7281C98.712 31.7151 99.0487 31.7204 99.3844 31.7439C99.7282 31.7585 100.058 31.8855 100.322 32.1054C100.447 32.2216 100.537 32.3692 100.584 32.5325C100.624 32.6972 100.631 32.8681 100.605 33.0355C100.536 33.3529 100.541 33.6821 100.621 33.9971C100.499 33.693 100.458 33.3628 100.501 33.0381C100.516 32.8839 100.5 32.7282 100.456 32.5796C100.402 32.4417 100.312 32.3212 100.194 32.2312C99.944 32.0496 99.646 31.9457 99.3373 31.9325C99.0176 31.9063 98.6849 31.9325 98.3469 31.9325C98.2631 31.9325 98.1766 31.9325 98.0849 31.9325C97.9935 31.9264 97.9043 31.9014 97.8229 31.8591C97.6727 31.7848 97.5327 31.6915 97.4063 31.5814C97.1597 31.377 96.9268 31.1565 96.7094 30.9212L96.0701 30.219C95.8729 29.9751 95.6602 29.7441 95.4335 29.5273Z" fill="#263238"/>
<path d="M101.281 36.4805C101.252 36.7013 101.267 36.9259 101.326 37.1407C101.363 37.3634 101.402 37.5861 101.428 37.8114C101.46 38.0406 101.467 38.2725 101.449 38.5031C101.436 38.7439 101.364 38.9777 101.239 39.1843C100.932 39.5512 100.496 39.7872 100.021 39.8445C99.7958 39.8891 99.5731 39.9205 99.3583 39.9703C99.1368 40.0011 98.9263 40.0856 98.7452 40.2166C98.9078 40.0533 99.11 39.935 99.3321 39.8734C99.5495 39.8052 99.7696 39.7555 99.9844 39.6952C100.404 39.5773 100.839 39.4122 101.072 39.0743C101.18 38.8943 101.244 38.6915 101.26 38.4821C101.283 38.2637 101.288 38.0438 101.276 37.8245C101.276 37.6018 101.247 37.3791 101.229 37.1538C101.229 37.0411 101.229 36.9285 101.229 36.8132C101.216 36.6996 101.234 36.5846 101.281 36.4805Z" fill="#263238"/>
<path d="M92.507 32.1836C92.2904 32.4012 92.0464 32.5896 91.7812 32.7443C91.5221 32.8995 91.2437 33.0202 90.9533 33.1032C90.8088 33.1457 90.6618 33.1789 90.5131 33.2028L90.2878 33.2342L90.0599 33.2473C89.9071 33.2552 89.7541 33.2552 89.6014 33.2473C89.4494 33.2473 89.2948 33.2211 89.1376 33.2159C89.287 33.263 89.4389 33.305 89.5909 33.339C89.7465 33.3692 89.9041 33.3876 90.0625 33.394C90.381 33.4089 90.6997 33.3708 91.0057 33.2814C91.3128 33.192 91.6025 33.0511 91.8624 32.8648C92.1207 32.6832 92.3399 32.4515 92.507 32.1836Z" fill="#263238"/>
<path d="M92.3786 31.9648C92.236 32.5656 92.2084 33.1879 92.2974 33.7988C92.3384 34.1093 92.4342 34.41 92.5803 34.687C92.6494 34.8283 92.7466 34.9539 92.866 35.0562C92.9854 35.1584 93.1245 35.2352 93.2746 35.2818C93.0184 35.1308 92.8201 34.8984 92.7113 34.6215C92.5985 34.3489 92.5219 34.0626 92.4834 33.77C92.406 33.1715 92.371 32.5683 92.3786 31.9648Z" fill="#263238"/>
<path d="M93.6833 35.2573C93.6833 35.2573 94.3934 33.929 94.9933 34.1648C95.5933 34.4006 95.1584 36.2608 94.5348 36.583C94.457 36.6294 94.3705 36.6595 94.2806 36.6714C94.1908 36.6833 94.0995 36.6768 94.0122 36.6523C93.925 36.6278 93.8436 36.5858 93.7731 36.5288C93.7026 36.4719 93.6444 36.4012 93.6021 36.321L93.6833 35.2573Z" fill="#F7A9A0"/>
<path d="M94.844 34.6914C94.844 34.6914 94.8597 34.7045 94.844 34.7097C94.4065 34.9508 94.2178 35.404 94.1026 35.8652C94.1241 35.8181 94.1552 35.776 94.194 35.7416C94.2327 35.7072 94.2782 35.6813 94.3275 35.6656C94.3768 35.6498 94.4289 35.6445 94.4804 35.65C94.5319 35.6555 94.5817 35.6716 94.6266 35.6975C94.6397 35.6975 94.6266 35.7263 94.6266 35.7237C94.5428 35.7084 94.4563 35.7193 94.3789 35.7549C94.3016 35.7905 94.2371 35.8492 94.1943 35.9228C94.1242 36.0467 94.0672 36.1776 94.024 36.3132C94.0082 36.3551 93.9296 36.342 93.9401 36.2948V36.2817C93.8772 35.7001 94.2309 34.8276 94.844 34.6914Z" fill="#263238"/>
<path d="M67.7453 56.9497L68.7697 59.4256L67.7453 59.8501L66.7156 57.3558L65.0205 58.6711V51.6914L69.9068 56.6275L67.7453 56.9497Z" fill="#263238"/>
<path d="M65.5 49.853C65.4087 49.4979 65.3647 49.1323 65.369 48.7657C65.3628 48.4007 65.4069 48.0366 65.5 47.6836C65.5938 48.0391 65.6379 48.4059 65.631 48.7735C65.6346 49.1375 65.5906 49.5004 65.5 49.853Z" fill="#263238"/>
<path d="M63.6267 50.6278C63.31 50.4426 63.0201 50.2152 62.7647 49.9518C62.5006 49.6972 62.2731 49.4071 62.0887 49.0898C62.7164 49.4729 63.2436 50.0002 63.6267 50.6278Z" fill="#263238"/>
<path d="M62.8486 52.5021C62.1342 52.6768 61.3883 52.6768 60.674 52.5021C61.3883 52.3274 62.1342 52.3274 62.8486 52.5021Z" fill="#263238"/>
<path d="M63.6267 54.3789C63.2436 55.0065 62.7164 55.5338 62.0887 55.9168C62.2731 55.5996 62.5006 55.3095 62.7647 55.0549C63.0201 54.7915 63.31 54.5641 63.6267 54.3789Z" fill="#263238"/>
<path d="M68.1514 52.5021C68.8658 52.3274 69.6117 52.3274 70.326 52.5021C69.6117 52.6768 68.8658 52.6768 68.1514 52.5021Z" fill="#263238"/>
<path d="M67.3733 50.6278C67.5594 50.3111 67.7877 50.0211 68.0519 49.7658C68.3067 49.5019 68.5968 49.2744 68.9139 49.0898C68.5308 49.7183 68.0024 50.2458 67.3733 50.6278Z" fill="#263238"/>
<path d="M24.1904 92.7943C25.8541 89.3752 28.7649 87.6198 32.0504 88.5892C35.3359 89.5586 35.8416 94.1331 33.3919 95.2885C30.9422 96.4439 28.4925 93.072 27.2008 92.3777C25.9091 91.6834 24.1904 92.7943 24.1904 92.7943Z" fill="#24A1FD"/>
<path d="M22.5817 101.897C22.5817 101.486 22.6053 101.072 22.6184 100.66C22.6499 99.8378 22.6761 99.0151 22.7075 98.1924C22.7625 96.6859 22.925 95.2083 23.5485 93.8223C24.1025 92.5623 25.0274 91.5012 26.2 90.7804C26.633 90.5175 27.1003 90.3156 27.5886 90.1805C28.0313 89.7344 28.5936 89.4259 29.2077 89.2923C29.967 89.1382 30.7473 89.1187 31.5133 89.2347C31.5421 89.2347 31.5421 89.2818 31.5133 89.2766C30.7826 89.183 30.0406 89.2365 29.3309 89.4338C29.0269 89.518 28.732 89.6321 28.4505 89.7744C28.2733 89.87 28.1035 89.9786 27.9423 90.0993C28.604 89.9617 29.2875 89.9679 29.9466 90.1176C30.1849 90.175 30.418 90.2522 30.6435 90.3482C30.822 90.3066 31.0055 90.2907 31.1884 90.301C31.4281 90.3078 31.6662 90.3412 31.8985 90.4006C32.3731 90.5343 32.8271 90.7327 33.2478 90.9901C33.2511 90.9936 33.2532 90.9982 33.2538 91.003C33.2545 91.0079 33.2536 91.0128 33.2513 91.0172C33.249 91.0215 33.2454 91.025 33.241 91.0272C33.2366 91.0293 33.2316 91.0301 33.2268 91.0294C32.8154 90.8032 32.3745 90.6357 31.9168 90.5316C31.6943 90.4814 31.4684 90.4481 31.2408 90.432C31.1152 90.4254 30.9892 90.4254 30.8636 90.432C31.798 90.8647 32.5496 91.6135 32.9858 92.5463C32.9858 92.5725 32.9569 92.5935 32.9465 92.5673C32.6876 92.0261 32.3101 91.5503 31.842 91.1751C31.3739 90.8 30.8272 90.5352 30.2426 90.4006C30.1719 90.3822 30.0959 90.3717 30.0225 90.3586C30.0411 90.4679 30.0534 90.5781 30.0592 90.6888C30.0802 90.8564 30.109 91.0215 30.1431 91.1866C30.2095 91.5253 30.297 91.8596 30.4051 92.1874C30.515 92.5191 30.6471 92.8429 30.8007 93.1568C30.9487 93.4892 31.1351 93.8031 31.3561 94.0921C31.3578 94.0944 31.3591 94.0969 31.3598 94.0996C31.3606 94.1024 31.3608 94.1052 31.3604 94.108C31.36 94.1108 31.3591 94.1135 31.3577 94.116C31.3563 94.1184 31.3544 94.1205 31.3522 94.1223C31.35 94.124 31.3474 94.1252 31.3447 94.126C31.342 94.1267 31.3391 94.1269 31.3363 94.1265C31.3335 94.1262 31.3308 94.1253 31.3284 94.1239C31.3259 94.1224 31.3238 94.1206 31.3221 94.1183C31.1256 93.8092 30.895 93.5262 30.7142 93.2039C30.5421 92.8977 30.3932 92.5789 30.2688 92.2503C30.1449 91.9171 30.0476 91.5745 29.978 91.2259C29.9413 91.0398 29.9125 90.8564 29.8915 90.6678C29.8689 90.5567 29.8618 90.4429 29.8706 90.3298C29.4847 90.2709 29.0927 90.263 28.7047 90.3062C28.8514 91.121 29.0086 91.9725 29.4645 92.6799C29.4802 92.7035 29.4409 92.7245 29.4278 92.7009C29.2135 92.3252 29.0245 91.9358 28.8619 91.535C28.7125 91.1447 28.6182 90.7356 28.5815 90.3193C27.9047 90.4105 27.2512 90.6292 26.6558 90.9639C25.5355 91.6167 24.6407 92.5955 24.0909 93.7699C23.5132 95.0351 23.1901 96.4016 23.1398 97.7916C23.0324 99.5391 23.0088 101.297 22.8333 103.032C22.8333 103.147 22.642 103.184 22.621 103.055C22.5706 102.671 22.5575 102.283 22.5817 101.897Z" fill="#263238"/>
<path d="M26.4253 90.5028C26.5348 90.3702 26.6617 90.253 26.8026 90.1543C26.9388 90.0417 27.0803 89.9316 27.2244 89.8321C27.5134 89.6351 27.833 89.4873 28.1702 89.3945C28.1964 89.3945 28.2095 89.4312 28.1702 89.4365C27.8309 89.523 27.5133 89.6791 27.2375 89.895C27.0986 89.9971 26.9755 90.1072 26.834 90.2198C26.7217 90.3408 26.597 90.4497 26.462 90.5447C26.4384 90.5578 26.407 90.529 26.4253 90.5028Z" fill="#263238"/>
<path d="M31.7334 91.7419C32.0058 92.0601 32.2579 92.3953 32.488 92.7453C32.7153 93.0992 32.905 93.4759 33.0539 93.8693C33.0539 93.8693 33.0539 93.8877 33.0356 93.8693C32.6547 93.1248 32.2047 92.4178 31.6915 91.7576C31.6863 91.7497 31.7177 91.7209 31.7334 91.7419Z" fill="#263238"/>
<path d="M28.1545 91.4069C28.1906 91.6203 28.254 91.8281 28.3431 92.0252C28.4348 92.2155 28.5408 92.3985 28.6601 92.5728C28.6601 92.5859 28.6601 92.5964 28.6418 92.5886C28.3563 92.2579 28.1741 91.8507 28.1178 91.4174C28.1099 91.3912 28.1519 91.3781 28.1545 91.4069Z" fill="#263238"/>
<path d="M22.8123 92.8777C22.8123 92.8777 20.4543 89.9171 15.9112 90.9677C11.5909 91.9633 9.59441 99.8888 13.962 100.835C18.3295 101.78 17.554 94.4523 19.1496 93.2078C20.3181 92.2935 22.008 92.4847 22.8123 92.8777Z" fill="#24A1FD"/>
<path d="M12.4004 95.2918C12.696 95.0337 13.0085 94.7957 13.3357 94.5791C13.6448 94.3695 13.9805 94.202 14.334 94.0813C14.5133 93.81 14.714 93.5533 14.9339 93.3137C15.3319 92.8823 15.793 92.514 16.3016 92.2211C16.257 92.2211 16.2125 92.2211 16.1653 92.2211C15.9245 92.208 15.6831 92.208 15.4422 92.2211C14.9579 92.2525 14.4831 92.3705 14.0405 92.5696C14.0143 92.5696 13.996 92.5408 14.0222 92.5303C14.4716 92.3362 14.942 92.1946 15.4239 92.1085C15.6581 92.066 15.8959 92.0458 16.1339 92.0482C16.2608 92.0487 16.3876 92.0557 16.5138 92.0692H16.5872C17.0046 91.8604 17.444 91.6987 17.8972 91.5871L17.7714 91.553C17.549 91.5047 17.3243 91.4679 17.0981 91.443C16.6458 91.3923 16.1888 91.3993 15.7383 91.4639C15.7095 91.4639 15.7016 91.4246 15.7383 91.422C16.1936 91.3657 16.6528 91.3473 17.1112 91.367C17.4968 91.377 17.8804 91.4261 18.2561 91.5137C18.5295 91.4625 18.8061 91.431 19.084 91.4194C20.656 91.3513 22.3983 91.9434 23.373 93.2534C24.3476 94.5634 24.5415 96.2978 24.7144 97.8698C24.9795 100.061 25.0383 102.273 24.8899 104.475C24.8899 104.606 24.6961 104.582 24.6934 104.459C24.6332 102.591 24.5677 100.72 24.3895 98.8602C24.3057 97.9982 24.214 97.131 24.0699 96.2769C23.9672 95.5416 23.7562 94.8255 23.4437 94.1521C23.107 93.4626 22.5737 92.8883 21.911 92.5015C21.2446 92.1203 20.5018 91.8921 19.7364 91.8334C19.051 91.7757 18.3608 91.8405 17.698 92.0246C17.7177 92.1575 17.7177 92.2926 17.698 92.4255C17.6846 92.5948 17.6512 92.7619 17.5985 92.9233C17.5483 93.0755 17.4843 93.2229 17.4072 93.3634C17.3234 93.5206 17.2186 93.6595 17.1243 93.8088C17.1085 93.8324 17.0719 93.8088 17.0876 93.7853C17.2749 93.5179 17.3961 93.2099 17.4413 92.8866C17.4701 92.7343 17.4885 92.5803 17.4963 92.4255C17.4963 92.3076 17.4963 92.1897 17.4963 92.0718C16.7756 92.2943 16.1029 92.6498 15.513 93.1198C15.4003 93.2089 15.2955 93.3032 15.1907 93.4001C15.3404 93.5386 15.4701 93.6973 15.5758 93.8717C15.7314 94.0999 15.8673 94.341 15.9819 94.5922C16.1919 95.0951 16.3338 95.6238 16.4038 96.1642C16.4038 96.1904 16.3645 96.1983 16.3618 96.1642C16.2747 95.6383 16.0974 95.1313 15.8378 94.6656C15.7187 94.4348 15.5839 94.2125 15.4344 94.0001C15.3584 93.8901 15.2798 93.7826 15.1959 93.6778C15.1514 93.6202 15.1042 93.5626 15.0597 93.5023C14.5254 94.026 14.0889 94.6409 13.7707 95.318C13.983 95.545 14.1597 95.803 14.2947 96.083C14.4572 96.3758 14.599 96.6796 14.7191 96.9921C14.9403 97.5982 15.1223 98.2178 15.2641 98.8471C15.2641 98.8733 15.2248 98.8812 15.2195 98.8471C15.0824 98.2112 14.8658 97.595 14.575 97.0131C14.4388 96.7275 14.2973 96.4472 14.1453 96.1695C13.9879 95.9159 13.8453 95.6535 13.7183 95.3835C13.414 96.0432 13.2363 96.7542 13.1943 97.4795C13.1927 97.4841 13.1896 97.4881 13.1857 97.4909C13.1817 97.4938 13.1769 97.4953 13.172 97.4953C13.1671 97.4953 13.1623 97.4938 13.1583 97.4909C13.1543 97.4881 13.1513 97.4841 13.1497 97.4795C13.2336 96.3377 13.5835 95.2313 14.1715 94.249C13.8938 94.3669 13.6135 94.4796 13.3462 94.6237C13.0051 94.8063 12.6875 95.0298 12.4004 95.2891C12.4056 95.3442 12.3794 95.3101 12.4004 95.2918Z" fill="#263238"/>
<path d="M12.8537 94.3478C13.0328 94.1763 13.2358 94.0316 13.4563 93.9182C13.6811 93.8163 13.9143 93.7339 14.1532 93.6719C14.1794 93.6719 14.1873 93.7086 14.1532 93.7138C13.9185 93.7767 13.693 93.8701 13.4825 93.9915C13.2668 94.1019 13.0601 94.2289 12.8642 94.3714C12.8617 94.3709 12.8594 94.3699 12.8574 94.3683C12.8554 94.3667 12.8538 94.3647 12.8528 94.3624C12.8518 94.36 12.8513 94.3575 12.8515 94.355C12.8516 94.3525 12.8524 94.35 12.8537 94.3478Z" fill="#263238"/>
<path d="M20.5748 88.923C20.5748 88.923 20.1399 83.6044 16.1863 81.8805C12.8825 80.4316 11.0039 84.152 13.3279 86.4236C15.2169 88.2602 18.243 87.4296 20.5748 88.923Z" fill="#24A1FD"/>
<path d="M14.0589 82.9105C14.6605 83.1541 15.2474 83.4322 15.8169 83.7436C16.2898 84.018 16.7456 84.3207 17.1819 84.6502C17.1164 84.5165 17.0588 84.375 16.9933 84.244C16.8911 84.0371 16.7784 83.8379 16.6579 83.6414C16.415 83.2351 16.1219 82.861 15.7855 82.5279C15.7671 82.5096 15.7855 82.4782 15.8169 82.4991C16.151 82.8291 16.4577 83.1857 16.7339 83.5655C16.871 83.759 16.9969 83.9602 17.1112 84.1681C17.2271 84.359 17.3153 84.5654 17.3732 84.7812L17.4177 84.8126C18.1086 85.3624 18.7415 85.9813 19.3067 86.6597C19.3067 86.6073 19.2832 86.5549 19.2701 86.5077C19.1967 86.2457 19.1155 85.9837 19.0316 85.7217C18.8613 85.176 18.6208 84.6546 18.3164 84.1707C18.3007 84.1471 18.34 84.1262 18.3531 84.1497C18.6646 84.6333 18.9413 85.1385 19.181 85.6615C19.2865 85.9171 19.374 86.1797 19.443 86.4475C19.4987 86.6187 19.5416 86.7939 19.5714 86.9715C19.7417 87.1889 19.912 87.4116 20.0718 87.6369C21.7695 90.0552 22.621 92.9765 22.8254 95.9004C22.8848 96.7724 22.8996 97.6469 22.8699 98.5204C22.8639 99.3987 22.786 100.275 22.6368 101.14C22.6368 101.195 22.5398 101.18 22.5424 101.125C22.5634 100.357 22.642 99.592 22.6577 98.8217C22.6734 98.0514 22.6446 97.2812 22.5817 96.5135C22.4632 94.9947 22.183 93.4928 21.746 92.0333C21.2846 90.5205 20.604 89.0834 19.7259 87.7679C19.5583 87.7339 19.3932 87.6894 19.2308 87.6474C19.0683 87.6055 18.8351 87.5453 18.6386 87.4902C18.2585 87.3926 17.889 87.2575 17.5356 87.0867C17.5308 87.0836 17.5273 87.0787 17.5261 87.073C17.5249 87.0674 17.5259 87.0615 17.5291 87.0566C17.5322 87.0518 17.5371 87.0483 17.5428 87.0471C17.5484 87.0459 17.5543 87.0469 17.5592 87.0501C17.9073 87.2394 18.2845 87.3696 18.6753 87.4352C18.9871 87.4981 19.3067 87.5374 19.6185 87.6081C19.3303 87.1916 19.0264 86.7854 18.6989 86.4003C17.9446 86.4679 17.1843 86.4113 16.4483 86.2326C16.0576 86.138 15.6733 86.0181 15.2981 85.8737C14.8999 85.7217 14.5121 85.5252 14.1349 85.3628C14.106 85.3497 14.1349 85.3052 14.1532 85.3235C14.8611 85.7088 15.6337 85.961 16.4326 86.0676C17.138 86.1805 17.8509 86.2401 18.5653 86.2457C18.2849 85.9235 17.9967 85.6091 17.685 85.313C16.637 84.3253 15.4134 83.4161 14.0458 82.9419C14.0196 82.9445 14.0327 82.9 14.0589 82.9105Z" fill="#263238"/>
<path d="M17.2762 82.9288C17.4541 83.1539 17.6161 83.3912 17.7609 83.6388C17.9096 83.899 18.0266 84.1761 18.1094 84.4641H18.0937C17.9627 84.2021 17.85 83.9401 17.7164 83.6781C17.5858 83.4224 17.4277 83.1817 17.2448 82.9602C17.2265 82.9393 17.2579 82.9078 17.2762 82.9288Z" fill="#263238"/>
<path d="M23.6481 87.9681C23.6717 88.1961 24.2455 86.0372 27.5781 84.1193C30.6147 82.377 34.2381 77.8444 31.2618 74.9834C28.8698 72.6726 22.532 77.7082 23.6481 87.9681Z" fill="#24A1FD"/>
<path d="M21.3451 100.347C21.3912 98.0977 21.5662 95.8531 21.8691 93.624C22.1323 91.5722 22.6055 89.553 23.2813 87.598C23.5433 86.8958 23.8053 86.2041 24.1223 85.5229C24.106 85.261 24.1104 84.9982 24.1354 84.7369C24.1537 84.3963 24.1825 84.0557 24.214 83.7151C24.2454 83.3745 24.2795 83.0365 24.3214 82.6986C24.3633 82.3606 24.4341 82.0226 24.4472 81.6846C24.4472 81.6791 24.4494 81.6737 24.4533 81.6698C24.4572 81.6659 24.4626 81.6637 24.4681 81.6637C24.4737 81.6637 24.479 81.6659 24.483 81.6698C24.4869 81.6737 24.4891 81.6791 24.4891 81.6846C24.4201 82.0504 24.3789 82.4209 24.366 82.7929C24.3424 83.1204 24.324 83.4479 24.3136 83.7754C24.3031 84.1029 24.3136 84.4356 24.3136 84.7631C24.3136 84.881 24.3136 85.0094 24.3136 85.1352C24.6306 84.4697 24.9659 83.8252 25.3301 83.1806C25.1048 81.7947 25.3982 80.3458 25.6812 78.9886C25.6812 78.9624 25.7284 78.9755 25.7231 79.0017C25.5844 79.7097 25.5108 80.4288 25.503 81.1501C25.503 81.7187 25.5161 82.2898 25.5188 82.8584C25.6 82.7221 25.6786 82.5964 25.7624 82.4497C26.1947 81.7423 26.6584 81.048 27.151 80.3746C27.1104 80.0457 27.121 79.7125 27.1825 79.3869C27.2379 79.0219 27.3184 78.6613 27.4235 78.3074C27.5309 77.9537 27.654 77.6053 27.7955 77.2594C27.937 76.9136 28.1335 76.5756 28.2724 76.2114C28.2724 76.1826 28.3274 76.2114 28.3117 76.2298C28.1337 76.5626 27.9931 76.9141 27.8925 77.2778C27.7853 77.6218 27.6978 77.9717 27.6305 78.3258C27.5597 78.6769 27.5021 79.0306 27.4523 79.3869C27.4183 79.6227 27.3973 79.8663 27.358 80.1021C28.0729 79.1409 28.8547 78.2312 29.6976 77.38C29.7186 77.359 29.7474 77.38 29.7291 77.4114C28.4519 78.8422 27.3116 80.3896 26.3231 82.0331L26.2157 82.2191C26.3991 82.1038 26.6087 82.0121 26.7842 81.9178C27.1065 81.737 27.4313 81.5589 27.7588 81.3807C28.0863 81.2025 28.3903 81.0375 28.7047 80.8567C28.8671 80.765 29.0269 80.6707 29.192 80.5947C29.3899 80.5076 29.5794 80.4023 29.7579 80.2803C29.7841 80.262 29.8103 80.3013 29.7841 80.317C29.4619 80.4925 29.1789 80.7545 28.8671 80.9536C28.5553 81.1528 28.2383 81.3466 27.9134 81.5274C27.3187 81.8575 26.6742 82.096 26.0794 82.4392C25.6733 83.1492 25.2934 83.8776 24.9555 84.6216C25.3092 84.3937 25.6733 84.1762 26.0401 83.9719C26.2786 83.8383 26.5144 83.7099 26.7554 83.5815C26.9941 83.4714 27.2199 83.3352 27.4287 83.1754C27.4331 83.1733 27.4381 83.1726 27.4429 83.1734C27.4477 83.1743 27.4521 83.1765 27.4556 83.18C27.459 83.1834 27.4613 83.1879 27.4621 83.1927C27.463 83.1975 27.4623 83.2024 27.4602 83.2068C27.0776 83.555 26.6544 83.8558 26.2 84.1029C25.7703 84.3518 25.338 84.5954 24.89 84.8129C24.5336 85.5989 24.2087 86.3849 23.9232 87.2076C22.5057 91.1769 21.9896 95.4134 21.746 99.6133C21.6726 100.866 21.6359 102.118 21.6202 103.373C21.6045 104.628 21.67 105.875 21.6673 107.127C21.6673 107.164 21.6071 107.172 21.6018 107.127C21.4499 106.017 21.4237 104.887 21.3765 103.769C21.3294 102.65 21.3215 101.494 21.3451 100.347Z" fill="#263238"/>
<path d="M27.4209 82.3154C28.0315 82.0461 28.6248 81.739 29.1972 81.3958C29.7787 81.0696 30.342 80.7118 30.8845 80.3242C30.8845 80.3242 30.9029 80.3242 30.8845 80.3399C30.3719 80.7554 29.8309 81.1345 29.2654 81.4744C28.6726 81.8042 28.0601 82.0973 27.4314 82.3521C27.4156 82.3652 27.3947 82.3259 27.4209 82.3154Z" fill="#263238"/>
<path d="M26.462 77.8122C26.5117 77.6183 26.572 77.427 26.6375 77.2357C26.6354 77.2327 26.6342 77.229 26.6342 77.2253C26.6342 77.2215 26.6354 77.2179 26.6375 77.2148C26.6794 77.1074 26.724 77 26.7685 76.8925L26.7842 76.8532L26.8078 76.793C26.8078 76.793 26.8235 76.793 26.8078 76.793C26.7921 76.793 26.7868 76.869 26.7737 76.9056C26.7701 76.9264 26.7639 76.9466 26.7554 76.9659C26.5356 77.7092 26.3701 78.4675 26.2602 79.2348C26.2614 79.238 26.2618 79.2414 26.2614 79.2447C26.2609 79.2481 26.2597 79.2513 26.2578 79.2541C26.2558 79.2568 26.2533 79.2591 26.2503 79.2607C26.2473 79.2623 26.2439 79.2631 26.2406 79.2631C26.2372 79.2631 26.2339 79.2623 26.2309 79.2607C26.2279 79.2591 26.2253 79.2568 26.2234 79.2541C26.2214 79.2513 26.2202 79.2481 26.2198 79.2447C26.2193 79.2414 26.2197 79.238 26.2209 79.2348C26.2566 78.7541 26.3373 78.2778 26.462 77.8122Z" fill="#263238"/>
<path d="M17.8134 101.164L18.0518 103.991L18.7828 112.616H26.6061L27.3344 103.991L27.5729 101.164H17.8134Z" fill="#455A64"/>
<path d="M17.8134 101.164L18.0518 103.991H27.3344L27.5729 101.164H17.8134Z" fill="#263238"/>
<path d="M17.0483 102.738H28.3431V100.027H17.0483V102.738Z" fill="#455A64"/>
</svg>
